<?xml version="1.0" standalone="no"?>
<!DOCTYPE svg PUBLIC "-//W3C//DTD SVG 1.1//EN" "http://www.w3.org/Graphics/SVG/1.1/DTD/svg11.dtd" >
<svg xmlns="http://www.w3.org/2000/svg" xmlns:xlink="http://www.w3.org/1999/xlink" version="1.1">
<metadata></metadata>
<defs>
<font id="focusregular" horiz-adv-x="1574" >
<font-face units-per-em="2048" ascent="1024" descent="-1024" />
<missing-glyph horiz-adv-x="702" />
<glyph horiz-adv-x="0" />
<glyph unicode="&#xd;" horiz-adv-x="0" />
<glyph horiz-adv-x="0" />
<glyph horiz-adv-x="0" />
<glyph unicode=" "  horiz-adv-x="702" />
<glyph unicode="&#x09;" horiz-adv-x="702" />
<glyph unicode="&#xa0;" horiz-adv-x="702" />
<glyph unicode="!" horiz-adv-x="542" d="M139 -442q0 33 22.5 56.5t57.5 23.5q33 0 56.5 -24t23.5 -56q0 -35 -23.5 -57.5t-56.5 -22.5q-35 0 -57.5 22.5t-22.5 57.5zM152 -137v1595q0 29 19 48.5t48 19.5t47.5 -19.5t18.5 -48.5v-1595q0 -29 -18.5 -48.5t-47.5 -19.5t-48 19.5t-19 48.5z" />
<glyph unicode="&#x22;" horiz-adv-x="751" d="M141 1051v403q0 27 17.5 44.5t44.5 17.5q25 0 43 -17.5t18 -44.5v-403q0 -27 -18 -44.5t-43 -17.5q-27 0 -44.5 17.5t-17.5 44.5zM379 1051v403q0 27 18.5 44.5t42.5 17.5q27 0 44.5 -17.5t17.5 -44.5v-403q0 -27 -17.5 -44.5t-44.5 -17.5q-25 0 -43 17.5t-18 44.5z" />
<glyph unicode="#" horiz-adv-x="1363" d="M10 14q0 27 19.5 45.5t46.5 18.5h168l39 190h-207q-29 0 -47.5 19.5t-18.5 46.5q0 29 18.5 47t47.5 18h231l84 428q4 27 26.5 42.5t51.5 9.5q27 -4 41 -27t10 -49l-80 -404h373l86 428q4 27 26.5 42.5t49.5 9.5q27 -4 41 -27t10 -49l-80 -404h144q27 0 45 -18.5t18 -46.5 q0 -27 -18.5 -46.5t-44.5 -19.5h-170l-37 -190h207q27 0 45 -18.5t18 -45.5q0 -29 -18.5 -47t-44.5 -18h-232l-86 -430q-4 -23 -22.5 -37t-40.5 -14h-13q-27 6 -41 28.5t-10 48.5l80 404h-375l-84 -430q-4 -23 -22.5 -37t-40.5 -14h-13q-27 6 -41 28.5t-10 48.5l80 404h-143 q-27 0 -46.5 18.5t-19.5 46.5zM377 78h373l38 190h-374z" />
<glyph unicode="%" horiz-adv-x="1124" d="M-7 -473.5q-7 24.5 7 47.5l748 1264q14 23 39.5 29.5t48.5 -7.5t29.5 -38.5t-7.5 -47.5l-747 -1263q-21 -33 -56 -33q-16 0 -32 10q-23 14 -30 38.5zM16 653q0 45 18.5 87t49.5 73t72 49.5t88 18.5t89 -18.5t72.5 -49.5t48 -73t17.5 -87q0 -47 -17.5 -88t-48 -71.5 t-72.5 -49t-89 -18.5t-88 18.5t-72 49t-49.5 71.5t-18.5 88zM145 653q0 -41 29 -70.5t70 -29.5t70.5 29.5t29.5 70.5t-29.5 71t-70.5 30t-70 -30t-29 -71zM379 -305q0 45 18.5 87t49 72.5t71.5 49t88 18.5q45 0 87 -18.5t73 -49t49.5 -72.5t18.5 -87q0 -47 -18.5 -88 t-49.5 -72t-73 -49t-87 -18q-47 0 -88 18t-71.5 49t-49 72t-18.5 88zM506 -305q0 -41 29.5 -71t70.5 -30t71 30t30 71t-30 70.5t-71 29.5t-70.5 -29.5t-29.5 -70.5z" />
<glyph unicode="&#x26;" horiz-adv-x="1501" d="M-10 -109v347q0 92 55 172q51 82 137 131q23 14 44.5 24t45.5 21l-63 82q-43 57 -51 100t-8 59v224q0 68 37.5 127t107.5 104q63 41 143 61.5t166 20.5q88 0 168 -20.5t143 -61.5q70 -45 107 -104.5t37 -126.5v-226q0 -68 -37 -128t-107 -103q-125 -78 -301 -82 q-2 0 -4 -1t-4 -1q-4 0 -7 1t-7 1q-45 0 -84 -6l541 -711q31 45 30 96v345q0 29 20.5 49t49.5 20t49.5 -20.5t20.5 -48.5v-345q0 -45 -12.5 -89t-41.5 -85l-28 -39l67 -90q18 -23 14 -52.5t-26 -45.5q-14 -14 -43 -14q-35 0 -55 26l-64 86h-2q-176 -113 -424 -112 q-119 0 -227.5 28.5t-194.5 83.5q-92 61 -137 129q-55 82 -55 174zM131 -109q0 -102 127 -186q68 -43 158 -66.5t188 -23.5q201 0 340 86l-586 770q-29 -10 -53 -22.5t-47 -26.5q-127 -80 -127 -184v-347zM289 819q2 -2 6 -20.5t27 -46.5l92 -121q43 10 90 13t94 7h6h12 q63 0 122 16.5t102 45.5q23 16 51.5 43.5t28.5 68.5v226q0 41 -29 69.5t-51 42.5q-96 61 -236 62q-66 0 -127 -16.5t-106 -45.5q-23 -14 -51.5 -42.5t-28.5 -69.5v-226q0 -4 -2 -6z" />
<glyph unicode="'" horiz-adv-x="514" d="M141 1051v403q0 27 17.5 44.5t44.5 17.5q25 0 43 -17.5t18 -44.5v-403q0 -27 -18 -44.5t-43 -17.5q-27 0 -44.5 17.5t-17.5 44.5z" />
<glyph unicode="(" horiz-adv-x="647" d="M137 -166v1335q0 119 90 215q80 86 217 138q27 10 52.5 -2.5t35.5 -38.5q10 -27 -2 -51.5t-38 -34.5q-104 -39 -162 -98.5t-58 -127.5v-1335q0 -68 57.5 -127t162.5 -98q27 -10 39 -35t1 -51q-18 -45 -63 -45q-4 0 -25 4q-137 51 -217 137q-90 96 -90 215z" />
<glyph unicode=")" horiz-adv-x="784" d="M141 -477q-10 27 2.5 51.5t38.5 34.5q104 39 161.5 98.5t57.5 126.5v1335q0 68 -57 127.5t-162 98.5q-27 10 -39 34.5t-2 51.5t35 39t51 2q68 -27 122 -59.5t95 -78.5q92 -98 93 -215v-1335q0 -117 -93 -215q-82 -88 -217 -137q-16 -4 -22 -4q-20 0 -37.5 11t-26.5 34z " />
<glyph unicode="*" horiz-adv-x="983" d="M29 1157q0 29 18.5 47.5t46.5 18.5h117l-84 84q-18 18 -19.5 44.5t19.5 47.5q20 20 47 19t45 -19l84 -84v117q0 29 18.5 47t47.5 18t47 -18.5t18 -46.5v-117l84 84q18 18 45 19t47 -19t19.5 -47t-19.5 -45l-84 -84h117q29 0 47.5 -18.5t18.5 -47.5t-18.5 -47t-47.5 -18 h-117l84 -84q18 -18 18.5 -45t-18.5 -48q-23 -18 -47 -18q-27 0 -45 18l-84 84v-116q0 -29 -18.5 -47.5t-46.5 -18.5q-29 0 -47.5 18.5t-18.5 47.5v116l-84 -84q-18 -18 -45 -18t-47 18q-18 20 -18 47t18 46l84 84h-117q-29 0 -47 18t-18 47z" />
<glyph unicode="+" horiz-adv-x="1208" d="M6 -31q0 29 18.5 48.5t47.5 19.5h352v352q0 29 19.5 47.5t48.5 18.5t48 -18.5t19 -47.5v-352h352q29 0 47.5 -19.5t18.5 -48.5t-18.5 -48t-47.5 -19h-352v-353q0 -29 -19.5 -47t-47.5 -18q-29 0 -48.5 18.5t-19.5 46.5v353h-352q-29 0 -47.5 19.5t-18.5 47.5z" />
<glyph unicode="," horiz-adv-x="585" d="M61 -741q7 24 29 36q90 47 150 140q29 45 42 95t13 101q0 27 17.5 44.5t43.5 17.5q25 0 42.5 -17.5t17.5 -44.5q0 -143 -74 -260q-72 -117 -195 -182q-8 -8 -28 -8q-37 0 -53 31q-12 23 -5 47z" />
<glyph unicode="-" horiz-adv-x="1001" d="M141 -31q0 27 17.5 44.5t44.5 17.5h456q27 0 44.5 -17.5t17.5 -44.5t-17.5 -44t-44.5 -17h-456q-27 0 -44.5 17.5t-17.5 43.5z" />
<glyph unicode="." horiz-adv-x="479" d="M139 -442q0 33 22.5 56.5t57.5 23.5q33 0 56.5 -24t23.5 -56q0 -35 -23.5 -57.5t-56.5 -22.5q-35 0 -57.5 22.5t-22.5 57.5z" />
<glyph unicode="/" horiz-adv-x="931" d="M13 -473.5q-7 24.5 7 47.5l748 1264q14 23 40 29.5t48 -7.5q23 -14 30 -38.5t-7 -47.5l-748 -1263q-20 -33 -55 -33q-16 0 -33 10q-23 14 -30 38.5z" />
<glyph unicode="0" d="M219 -147v1277q0 41 11.5 82t37.5 80q23 35 54.5 64.5t72.5 54.5q80 51 181.5 78t211.5 27q111 0 210.5 -27t181.5 -78q39 -25 71.5 -54.5t55.5 -64.5q51 -78 51 -162v-1277q0 -84 -51 -162q-23 -35 -55.5 -64.5t-71.5 -54.5q-82 -51 -181.5 -77.5t-210.5 -26.5 t-212 26.5t-181 77.5q-41 25 -72.5 54.5t-54.5 64.5q-27 39 -38 79t-11 83zM348 -147q0 -25 6 -46l779 1479q-10 10 -23 17q-133 84 -322 83q-92 0 -175 -21.5t-148 -61.5q-117 -72 -117 -173v-1277zM442 -303l23 -16q63 -47 147 -65.5t176 -18.5q188 0 322 84 q117 76 117 172v1277q0 23 -6 46z" />
<glyph unicode="1" d="M470 802.5q-3 26.5 13 47.5l506 641q31 37 72 20q45 -14 45 -61v-1917q0 -29 -19.5 -47t-46.5 -18t-46 18t-19 47v1731l-389 -494q-18 -23 -44 -25t-46 15q-23 16 -26 42.5z" />
<glyph unicode="2" d="M219 12q0 111 43 209t125 176q80 78 182.5 119t218.5 41q90 0 170 33t139.5 89t94.5 131t35 161t-35 161.5t-94.5 132t-139 89t-170.5 32.5q-92 0 -171.5 -32.5t-139 -89t-94.5 -132t-35 -161.5q0 -27 -18.5 -45.5t-46.5 -18.5q-27 0 -45.5 18.5t-18.5 45.5q0 111 43 210 t125 177q80 78 182.5 118t218.5 40q117 0 218.5 -40t183.5 -118t125 -177.5t43 -209.5q0 -111 -43 -209t-125 -176q-166 -160 -402 -160q-92 0 -171.5 -33t-139 -88t-94.5 -131t-35 -162v-415h944q29 0 47.5 -18.5t18.5 -45.5q0 -29 -18.5 -47t-47.5 -18h-1009 q-27 0 -45.5 18t-18.5 47v479z" />
<glyph unicode="3" d="M172 39q0 29 18.5 47t47.5 18q27 0 45 -18t18 -47q0 -96 39 -179t104.5 -145.5t154.5 -98.5t189 -36t188.5 36t154 98.5t104.5 145.5t39 179q0 94 -39 178t-104.5 146.5t-153.5 98.5t-189 36h-8q-25 4 -41 21.5t-16 43.5q0 27 18.5 45.5t46.5 18.5q82 0 154 29.5 t125 79.5t84 118t31 143q0 76 -31 144.5t-84 119t-125 80t-154 29.5t-153.5 -29.5t-125.5 -80t-85 -119t-31 -144.5q0 -27 -18.5 -45t-44.5 -18q-29 0 -47.5 18.5t-18.5 44.5q0 104 41 195.5t112.5 159t167 107.5t203.5 40q109 0 204 -40t166 -107.5t112 -158.5t41 -196 q0 -137 -68.5 -249.5t-185.5 -178.5q45 -23 87 -49t79 -63q90 -86 135 -192.5t45 -225.5t-45 -225.5t-135 -192.5q-86 -84 -199 -127t-236 -43t-235.5 43t-198.5 127q-88 86 -135 192.5t-47 225.5z" />
<glyph unicode="4" d="M225 43l762 1438q10 20 29.5 29.5t42.5 2.5q23 -4 36 -22t13 -41l-2 -1374h186q29 0 47.5 -18.5t18.5 -45.5q0 -29 -18.5 -47t-47.5 -18h-186l-2 -414q0 -29 -18.5 -47t-45.5 -18q-29 0 -47 18t-18 47l2 414h-694q-35 0 -56 33q-20 31 -2 63zM391 76h586l2 1114z" />
<glyph unicode="5" d="M219 -467q0 27 18.5 45.5t45.5 18.5h505q90 0 170 32.5t139.5 89t94.5 132t35 161.5t-35 162t-94.5 131t-139 88t-170.5 33h-505q-25 0 -44.5 17.5t-19.5 41.5v7v958q0 29 18.5 47.5t45.5 18.5h919q29 0 47.5 -18.5t18.5 -47.5q0 -27 -18.5 -45.5t-47.5 -18.5h-854v-829 h440q236 0 402 -160q82 -78 125 -176t43 -209t-43 -210t-125 -177t-183.5 -117.5t-218.5 -39.5h-505q-27 0 -45.5 18t-18.5 47z" />
<glyph unicode="6" d="M219 10q0 78 22.5 149.5t61.5 137.5l680 1186q12 23 39 31t51 -7q23 -12 29 -38.5t-6 -49.5l-518 -903q51 18 103 28.5t107 10.5q236 0 402 -160q82 -78 125 -176t43 -209t-43 -209t-125 -176t-183.5 -117.5t-218.5 -39.5t-219 39.5t-182 117.5q-82 78 -125 176.5 t-43 208.5zM348 10q0 -86 35 -160.5t94.5 -131t139 -89t171.5 -32.5q90 0 170 32.5t139.5 89t94.5 131t35 160.5t-35 162t-94.5 131t-139 88t-170.5 33q-123 0 -222 -53.5t-154 -145.5l-23 -37q-27 -41 -34 -86t-7 -92z" />
<glyph unicode="7" d="M219 1450q0 29 18.5 47.5t45.5 18.5h1009q33 0 56 -31q18 -33 2 -64l-1010 -1919q-18 -34 -57 -34q-16 0 -31 8q-23 12 -31 37.5t4 48.5l961 1824h-903q-27 0 -45.5 18.5t-18.5 45.5z" />
<glyph unicode="8" d="M205 25q0 113 44 214t128 181q35 31 69.5 56.5t75.5 45.5q-123 70 -194.5 192t-71.5 269q0 111 42 207t113.5 169t169 115t207.5 42q111 0 207.5 -42t169 -115t114.5 -169t42 -207q0 -147 -73.5 -269t-192.5 -192q75 -36 143 -102q86 -78 129 -180.5t43 -214.5 q0 -113 -43 -214.5t-129 -181.5q-82 -78 -187.5 -119.5t-222.5 -41.5t-221 41.5t-190 119.5q-86 80 -129 181.5t-43 214.5zM338 25q0 -88 35 -165t96 -134.5t143 -91t176 -33.5q92 0 174 33.5t143.5 91t97.5 134.5t36 165t-36 165.5t-97.5 135t-143 91.5t-174.5 34 q-94 0 -176 -34t-143 -91.5t-96 -135t-35 -165.5zM387 983q0 -84 32 -156.5t86 -127t127 -86t156 -31.5q82 0 155 31.5t127 86t86 127t32 156.5q0 82 -32 155.5t-86 127t-127 85t-155 31.5q-84 0 -156.5 -31.5t-126.5 -85t-86 -127t-32 -155.5z" />
<glyph unicode="9" d="M219 973q0 111 43 209t125 176q80 78 182.5 118t218.5 40q117 0 218.5 -40t183.5 -118t125 -176t43 -209q0 -78 -24.5 -149.5t-61.5 -137.5l-680 -1186q-20 -33 -57 -32q-16 0 -31 8q-23 14 -31 39.5t6 48.5l518 903q-49 -18 -102 -28.5t-107 -10.5q-117 0 -219 41 t-182 119q-82 78 -125 176t-43 209zM348 973q0 -86 35 -162t94.5 -131t139 -88t171.5 -33q119 0 218.5 53.5t156.5 145.5l23 37q25 41 33 86t8 92q0 86 -35 160.5t-94.5 131t-139 89t-170.5 32.5q-92 0 -171.5 -32.5t-139 -89t-94.5 -131t-35 -160.5z" />
<glyph unicode=":" horiz-adv-x="536" d="M139 131q0 33 22.5 56.5t57.5 23.5q33 0 56.5 -23.5t23.5 -56.5q0 -35 -23.5 -57.5t-56.5 -22.5q-35 0 -57.5 22.5t-22.5 57.5zM139 -442q0 33 22.5 56.5t57.5 23.5q33 0 56.5 -24t23.5 -56q0 -35 -23.5 -57.5t-56.5 -22.5q-35 0 -57.5 22.5t-22.5 57.5z" />
<glyph unicode=";" horiz-adv-x="669" d="M61 -741q7 24 29 36q90 47 150 140q29 45 42 95t13 101q0 27 17.5 44.5t43.5 17.5q25 0 42.5 -17.5t17.5 -44.5q0 -143 -74 -260q-72 -117 -195 -182q-8 -8 -28 -8q-37 0 -53 31q-12 23 -5 47zM276 -125q0 35 23 57.5t55 22.5q35 0 57.5 -22.5t22.5 -57.5 q0 -33 -22.5 -56.5t-57.5 -23.5q-33 0 -55.5 23.5t-22.5 56.5z" />
<glyph unicode="&#x3c;" horiz-adv-x="1011" d="M12 14q-4 39 33 56l621 307q23 10 46 3t33 -30q12 -23 4 -46t-30 -36l-508 -252l512 -235q23 -10 31 -33.5t-2 -46.5q-17 -35 -56 -35q-12 0 -24 6l-625 289q-35 16 -35 53z" />
<glyph unicode="=" horiz-adv-x="843" d="M-2 100q0 27 17.5 44.5t43.5 17.5h457q27 0 44.5 -17.5t17.5 -44.5q0 -25 -17.5 -43t-44.5 -18h-457q-27 0 -44 18.5t-17 42.5zM-2 -166q0 27 17.5 44.5t43.5 17.5h457q27 0 44.5 -17.5t17.5 -44.5q0 -25 -17.5 -43t-44.5 -18h-457q-27 0 -44 18.5t-17 42.5z" />
<glyph unicode="&#x3e;" horiz-adv-x="1024" d="M10 -252.5q8 23.5 31 33.5l512 235l-508 252q-23 12 -31 36t2 46q12 23 36 30t46 -3l621 -307q33 -14 33 -56q0 -37 -35 -53l-625 -289q-12 -6 -26 -6q-37 0 -54 35q-10 23 -2 46.5z" />
<glyph unicode="?" horiz-adv-x="1019" d="M0 1044v103q0 127 131 209q55 35 128 54.5t151 19.5t149.5 -18.5t128.5 -55.5q63 -41 97 -94.5t34 -114.5v-285q0 -59 -33.5 -113.5t-97.5 -95.5q-90 -57 -215 -69v-809q0 -27 -18 -45.5t-45 -18.5t-45.5 18.5t-18.5 45.5v868q0 27 18.5 45.5t45.5 18.5q59 0 114.5 13 t96.5 40q47 31 59 58.5t12 43.5v285q0 16 -12 45t-59 57q-41 27 -96.5 41.5t-114.5 14.5t-115.5 -14.5t-97.5 -41.5q-47 -29 -59.5 -57.5t-12.5 -44.5v-103q0 -27 -18.5 -44t-45.5 -17t-44 17.5t-17 43.5zM334 -461q0 31 22.5 52.5t53.5 21.5t52 -21.5t21 -52.5t-21.5 -53.5 t-51.5 -22.5q-31 0 -53.5 22.5t-22.5 53.5z" />
<glyph unicode="@" horiz-adv-x="1339" d="M0 61q0 131 49 251t144 212q92 94 211.5 143.5t250.5 49.5t251 -49.5t212 -143.5q94 -92 143.5 -211.5t49.5 -251.5q0 -78 -29 -144.5t-80 -117.5t-118.5 -79.5t-143.5 -28.5q-72 0 -141 28q-70 -29 -144 -28q-78 0 -144.5 28.5t-117.5 79.5t-79.5 118t-28.5 144 q0 76 28.5 143.5t79.5 119t118 80t144 28.5q76 0 143.5 -28.5t119 -80t80 -119t28.5 -143.5q0 -72 -25.5 -134t-68.5 -111h8q51 0 96 19.5t78 53t52.5 77.5t19.5 95q0 106 -40 202.5t-116 172.5t-172 116t-203 40q-106 0 -202.5 -40t-171.5 -116q-76 -76 -116 -172t-40 -203 q0 -106 40 -202.5t116 -171.5q76 -76 172 -116t202 -40q27 0 44.5 -18.5t17.5 -44.5q0 -25 -17.5 -43.5t-44.5 -18.5q-131 0 -250.5 49t-211.5 144q-94 92 -143.5 211.5t-49.5 250.5zM410 61q0 -51 19.5 -95t53 -77.5t77.5 -53t95 -19.5t95.5 19.5t78 53t53 77.5t19.5 95 t-19.5 95.5t-53 78t-77.5 53t-96 19.5q-51 0 -95 -19.5t-77.5 -53t-53 -78t-19.5 -95.5z" />
<glyph unicode="A" horiz-adv-x="1531" d="M141 -467v1669q0 63 24.5 120.5t67.5 100.5t99.5 68t122.5 25h512q66 0 123 -25t99 -68t66.5 -100t24.5 -121v-1669q0 -29 -18.5 -47t-44.5 -18q-29 0 -47.5 18t-18.5 47v893h-881v-893q0 -29 -18.5 -47t-44.5 -18q-29 0 -47.5 18t-18.5 47zM270 557h881v645 q0 78 -53.5 131t-130.5 53h-512q-78 0 -131.5 -53t-53.5 -131v-645z" />
<glyph unicode="B" horiz-adv-x="1241" d="M0 -467v959v710v248q0 29 18.5 47.5t47.5 18.5h503q117 0 219.5 -40t182.5 -118q82 -78 125 -177.5t43 -209.5q0 -111 -43 -209t-125 -176q-29 -29 -63 -52.5t-68 -41.5q35 -18 68.5 -42t62.5 -53q82 -78 125 -176t43 -209t-43 -210t-125 -177q-80 -78 -182.5 -117.5 t-219.5 -39.5h-503q-29 0 -47.5 18t-18.5 47zM129 -219v-184h440q92 0 172 32.5t139.5 89t94.5 132t35 161.5t-35 162t-94.5 131t-139 88t-172.5 33h-440v-645zM129 557h440q92 0 172 33t139.5 89t94.5 131t35 161t-35 161.5t-94.5 132t-139 89t-172.5 32.5h-440v-829z" />
<glyph unicode="C" horiz-adv-x="1105" d="M0 -219v1421q0 63 24.5 120.5t67.5 100.5t99.5 68t121.5 25h762q27 0 45.5 -18.5t18.5 -47.5q0 -27 -18.5 -45.5t-45.5 -18.5h-762q-78 0 -131 -53t-53 -131v-1421q0 -78 53.5 -131t130.5 -53h762q27 0 45.5 -18.5t18.5 -45.5q0 -29 -18.5 -47t-45.5 -18h-762 q-66 0 -122 24.5t-99 67.5t-67.5 99t-24.5 122z" />
<glyph unicode="D" horiz-adv-x="1515" d="M135 -467v1917q0 29 19 47q18 18 47 19h504q117 0 219 -40t182 -118q82 -78 125 -177.5t43 -209.5v-959q0 -111 -43 -210t-125 -177q-80 -78 -182.5 -117.5t-218.5 -39.5h-504q-29 0 -47 18t-19 47zM264 -403h441q92 0 171.5 32.5t139 89t94.5 132t35 161.5v959 q0 86 -35 161.5t-94.5 132t-139 89t-171.5 32.5h-441v-1789z" />
<glyph unicode="E" horiz-adv-x="1118" d="M0 -219v1421q0 63 24.5 120.5t67.5 100.5t99.5 68t121.5 25h762q27 0 45.5 -18.5t18.5 -47.5q0 -27 -18.5 -45.5t-45.5 -18.5h-762q-78 0 -131 -53t-53 -131v-645h692q29 0 47.5 -19.5t18.5 -45.5q0 -27 -18.5 -46.5t-47.5 -19.5h-692v-645q0 -78 53.5 -131t130.5 -53 h762q27 0 45.5 -18.5t18.5 -45.5q0 -29 -18.5 -47t-45.5 -18h-762q-66 0 -122 24.5t-99 67.5t-67.5 99t-24.5 122z" />
<glyph unicode="F" horiz-adv-x="1136" d="M0 -467v1669q0 63 24.5 120.5t67.5 100.5t99.5 68t121.5 25h762q27 0 45.5 -18.5t18.5 -47.5q0 -27 -18.5 -45.5t-45.5 -18.5h-762q-78 0 -131 -53t-53 -131v-645h692q29 0 47.5 -19.5t18.5 -45.5q0 -27 -18.5 -46.5t-47.5 -19.5h-692v-893q0 -29 -18.5 -47t-44.5 -18 q-29 0 -47.5 18t-18.5 47z" />
<glyph unicode="G" horiz-adv-x="1357" d="M0 -219v1421q0 63 24.5 120.5t67.5 100.5t99.5 68t121.5 25h762q27 0 45.5 -18.5t18.5 -47.5q0 -27 -18.5 -45.5t-45.5 -18.5h-762q-78 0 -131 -53t-53 -131v-1421q0 -78 53.5 -131t130.5 -53h512q78 0 131.5 53t53.5 131v645h-441q-27 0 -46 19.5t-19 46.5t19.5 46 t45.5 19h506q27 0 45.5 -19.5t18.5 -45.5v-711q0 -66 -24.5 -122t-66.5 -99t-99.5 -67.5t-123.5 -24.5h-512q-66 0 -122 24.5t-99 67.5t-67.5 99t-24.5 122z" />
<glyph unicode="H" horiz-adv-x="1531" d="M143 -467v1917q0 29 18.5 47.5t47.5 18.5q27 0 45 -18.5t18 -47.5v-893h881v893q0 29 18.5 47.5t47.5 18.5q27 0 45 -18.5t18 -47.5v-1917q0 -29 -18.5 -47t-44.5 -18q-29 0 -47.5 18t-18.5 47v893h-881v-893q0 -29 -18 -47t-45 -18q-29 0 -47.5 18t-18.5 47z" />
<glyph unicode="I" horiz-adv-x="522" d="M143 -467v1917q0 29 18.5 47.5t47.5 18.5q27 0 45 -18.5t18 -47.5v-1917q0 -29 -18 -47t-45 -18q-29 0 -47.5 18t-18.5 47z" />
<glyph unicode="J" horiz-adv-x="1382" d="M0 12v158q0 27 18.5 45t47.5 18q27 0 45 -18t18 -45v-158q0 -86 35 -161.5t94 -132t140 -89t171 -32.5q92 0 172 32.5t139.5 89t94.5 132t35 161.5v1438q0 29 18.5 47.5t46.5 18.5q27 0 45.5 -18.5t18.5 -47.5v-1438q0 -111 -43 -210t-125 -177q-80 -78 -182.5 -117.5 t-219.5 -39.5t-219 39.5t-182 117.5q-82 78 -125 177.5t-43 209.5z" />
<glyph unicode="K" horiz-adv-x="1241" d="M0 -467v1917q0 29 18.5 47.5t47.5 18.5q27 0 45 -18.5t18 -47.5v-997l184 215h2l711 825q16 20 43 22.5t47 -16.5q20 -16 22.5 -42.5t-16.5 -47.5l-678 -788l684 -1053q16 -23 10.5 -48.5t-28.5 -41.5q-25 -10 -35 -10q-37 0 -55 28l-664 1022l-227 -264v-721 q0 -29 -18.5 -47t-44.5 -18q-29 0 -47.5 18t-18.5 47z" />
<glyph unicode="L" horiz-adv-x="1095" d="M0 -219v1669q0 29 18.5 47.5t47.5 18.5q27 0 45 -18.5t18 -47.5v-1669q0 -78 53.5 -131t130.5 -53h762q27 0 45.5 -18.5t18.5 -45.5q0 -29 -18.5 -47t-45.5 -18h-762q-66 0 -122 24.5t-99 67.5t-67.5 99t-24.5 122z" />
<glyph unicode="M" horiz-adv-x="1531" d="M143 -467v1917q0 23 13.5 41t36.5 22q23 6 43 -3t30 -29l447 -850l448 850q10 20 29.5 29.5t42.5 2.5q23 -4 36 -22t13 -41v-1917q0 -29 -18.5 -47t-46.5 -18q-27 0 -45.5 18t-18.5 47v1655l-383 -727q-18 -35 -57 -35q-41 0 -58 35l-383 727v-1655q0 -29 -18 -47 t-45 -18q-29 0 -47.5 18t-18.5 47z" />
<glyph unicode="N" horiz-adv-x="1531" d="M143 -467v1917v4v2v2v2q2 6 4.5 11.5t4.5 9.5v2l2 2l16 18q2 0 2 2q2 0 2 2h2h2q0 2 2 2t2 1t2 1h2h2q0 2 2 2h3h2l2 3h2h2h4h2h2h2h2h2h2q8 -2 14.5 -4.5t10.5 -4.5v-2q14 -6 18 -16l2 -2q0 -2 2 -2v-2l2 -2l887 -1688v1657q0 29 18.5 47.5t47.5 18.5q27 0 45 -18.5 t18 -47.5v-1917q0 -23 -13.5 -41t-35.5 -22q-2 -2 -14 -2q-39 0 -58 34l-889 1688v-1657q0 -29 -18 -47t-45 -18q-29 0 -47.5 18t-18.5 47z" />
<glyph unicode="O" horiz-adv-x="1517" d="M133 -147v1277q0 86 51 162q23 35 54.5 63.5t72.5 55.5q78 49 179.5 77t211.5 28q111 0 211.5 -28t180.5 -77q41 -27 71.5 -55.5t55.5 -63.5q51 -80 51 -162v-1277q0 -82 -51 -162q-25 -35 -55.5 -63.5t-71.5 -55.5q-80 -49 -180.5 -76.5t-211.5 -27.5t-212 27.5 t-179 76.5q-41 27 -72.5 55.5t-54.5 63.5q-51 76 -51 162zM262 -147q0 -47 31 -91.5t88 -80.5q63 -41 146 -62.5t175 -21.5t174 21.5t148 62.5q119 78 119 172v1277q0 96 -119 173q-66 41 -148 62t-174 21t-175 -21.5t-146 -61.5q-57 -37 -88 -81t-31 -92v-1277z" />
<glyph unicode="P" horiz-adv-x="1284" d="M0 -467v959v958q0 29 18.5 47.5t47.5 18.5h503q117 0 219.5 -40t182.5 -118q82 -78 125 -177.5t43 -209.5q0 -111 -43 -209t-125 -176q-80 -78 -182.5 -119t-219.5 -41h-440v-893q0 -29 -18 -47t-45 -18q-29 0 -47.5 18t-18.5 47zM129 555l440 2q92 0 172 33t139.5 89 t94.5 131t35 161t-35 161.5t-94.5 132t-139 89t-172.5 32.5h-440v-831z" />
<glyph unicode="Q" horiz-adv-x="1374" d="M0 -143v1282q0 86 51 159q25 35 54.5 65t70.5 56q80 51 180.5 78t210.5 27q225 0 389 -105q82 -51 127 -121q49 -74 50 -159v-1282q0 -86 -50 -162q-47 -68 -127 -121q-137 -88 -325 -100v-260q0 -27 -18.5 -45.5t-45.5 -18.5q-29 0 -47 18.5t-18 45.5v260 q-188 12 -326 100q-80 51 -125 121q-51 76 -51 162zM129 -143q0 -98 117 -172q111 -70 256 -82v254q0 27 18.5 45t46.5 18q27 0 45.5 -18.5t18.5 -44.5v-254q145 12 256 82q117 74 117 172v1282q0 94 -117 172q-63 41 -145.5 62.5t-174.5 21.5t-175 -21.5t-146 -62.5 q-117 -78 -117 -172v-1282z" />
<glyph unicode="R" horiz-adv-x="1271" d="M0 -467v959v958q0 29 18.5 47.5t47.5 18.5h503q117 0 219.5 -40t182.5 -118q82 -78 125 -177.5t43 -209.5q0 -111 -43 -209t-125 -176q-63 -59 -139 -97t-162 -55l460 -872q12 -23 5 -48.5t-31 -37.5q-8 -8 -29 -8q-39 0 -57 34l-492 924h-397v-893q0 -29 -18.5 -47 t-44.5 -18q-29 0 -47.5 18t-18.5 47zM129 555l436 2h2h2q92 0 172 33t139.5 88t94.5 131t35 162t-35 161.5t-94.5 132t-139 89t-172.5 32.5h-440v-831z" />
<glyph unicode="S" horiz-adv-x="1263" d="M0 -147q0 27 18.5 45t47.5 18q27 0 45 -18.5t18 -44.5q0 -47 30.5 -91.5t88.5 -80.5q63 -41 146 -62.5t175 -21.5t175 21.5t147 62.5q57 37 88 80.5t31 91.5v319q0 47 -31 91t-88 81q-125 80 -309 84q-4 0 -6.5 -1t-6.5 -1q-111 0 -212 26.5t-179 77.5q-41 27 -71.5 56.5 t-55.5 64.5q-51 74 -51 160v319q0 86 51 162q23 35 54.5 63.5t72.5 55.5q78 49 179.5 77t211.5 28q111 0 212.5 -28t179.5 -77q41 -27 72.5 -55.5t53.5 -63.5q51 -76 52 -162q0 -27 -18.5 -45t-47.5 -18q-27 0 -45 18.5t-18 44.5q0 47 -31 91.5t-88 81.5q-63 41 -146 62 t-176 21q-92 0 -175 -21.5t-146 -61.5q-57 -37 -88 -81t-31 -92v-319q0 -47 30.5 -91t88.5 -81q61 -39 141 -60.5t168 -21.5h12q111 0 212.5 -26.5t179.5 -75.5q84 -53 126 -121q51 -76 52 -162v-319q0 -86 -52 -162q-23 -35 -54.5 -63.5t-71.5 -55.5q-78 -49 -179.5 -76.5 t-212.5 -27.5t-212 27.5t-179 76.5q-41 27 -72.5 55.5t-54.5 63.5q-51 76 -51 162z" />
<glyph unicode="T" horiz-adv-x="1064" d="M0 1450q0 29 18.5 47.5t47.5 18.5h1009q29 0 47.5 -18.5t18.5 -47.5q0 -27 -18.5 -45.5t-47.5 -18.5h-440v-1853q0 -29 -18.5 -47t-47.5 -18q-27 0 -45 18t-18 47v1853h-440q-29 0 -47.5 18.5t-18.5 45.5z" />
<glyph unicode="U" horiz-adv-x="1517" d="M135 12v1438q0 29 18.5 47.5t47.5 18.5q27 0 45 -18.5t18 -47.5v-1438q0 -86 35 -161.5t94.5 -132t140 -89t171.5 -32.5q92 0 171.5 32.5t139 89t94.5 132t35 161.5v1438q0 29 18 47.5t47 18.5q27 0 45.5 -18.5t18.5 -47.5v-1438q0 -111 -43 -210t-125 -177 q-80 -78 -182.5 -117.5t-218.5 -39.5q-117 0 -219.5 39.5t-182.5 117.5q-82 78 -125 177.5t-43 209.5z" />
<glyph unicode="V" horiz-adv-x="1339" d="M2 1434q-6 27 7.5 49t39.5 30q25 6 48.5 -7t29.5 -40l442 -1679l443 1679q6 27 29.5 41.5t50.5 5.5q25 -6 38 -29.5t7 -49.5l-504 -1917q-13 -49 -64 -49q-49 0 -61 49z" />
<glyph unicode="W" horiz-adv-x="1845" d="M2 1434q-6 27 7.5 49t39.5 30q25 6 48.5 -7t29.5 -40l442 -1679l187 705l-248 942q-8 27 5 49t40 30q27 6 50.5 -7t29.5 -40l188 -721l191 721q6 27 29.5 41.5t50.5 5.5q25 -6 38 -29.5t7 -49.5l-248 -942l186 -705l441 1679q6 27 29 40t50 7q27 -8 40.5 -30.5t6.5 -48.5 l-505 -1917q-12 -49 -62 -49q-51 0 -63 49l-191 721l-188 -721q-12 -49 -64 -49q-49 0 -61 49z" />
<glyph unicode="X" horiz-adv-x="1263" d="M3 -486.5q-7 25.5 5 48.5l488 930l-488 929q-12 23 -5 48.5t32 37.5q23 12 48.5 5t39.5 -31l446 -850l449 850q12 25 37.5 32t48.5 -6q25 -12 32 -37.5t-6 -48.5l-487 -929l487 -930q12 -23 5 -48.5t-31 -37.5q-6 -4 -14.5 -6t-14.5 -2q-39 0 -57 34l-449 850l-446 -850 q-18 -34 -55 -34h-2q-16 0 -31 8q-25 12 -32 37.5z" />
<glyph unicode="Y" horiz-adv-x="1062" d="M3 1469.5q7 25.5 32 37.5q23 12 48.5 5t37.5 -31l450 -844l447 844q12 25 37.5 31.5t48.5 -5.5q25 -12 32 -37.5t-6 -48.5l-493 -940v-948q0 -29 -18.5 -47t-45.5 -18q-29 0 -47 18t-18 47v948l-500 938q-12 25 -5 50.5z" />
<glyph unicode="Z" horiz-adv-x="1228" d="M0 1450q0 29 18.5 47.5t47.5 18.5h1009q33 0 55 -31q9 -20 9 -38q0 -14 -6 -26l-961 -1824h903q27 0 45.5 -18.5t18.5 -45.5q0 -29 -18.5 -47t-45.5 -18h-1009q-41 0 -56 30q-12 18 -12 35q0 15 10 29l959 1824h-901q-29 0 -47.5 18.5t-18.5 45.5z" />
<glyph unicode="\" horiz-adv-x="968" d="M-7 821.5q7 24.5 30 38.5t48 7t40 -29l747 -1264q14 -23 7 -47.5t-29 -38.5q-17 -10 -33 -10q-35 0 -55 33l-748 1263q-14 23 -7 47.5z" />
<glyph unicode="^" horiz-adv-x="1034" d="M6 813q0 12 6 25l287 624q16 35 55 35t54 -33l309 -620q10 -23 3 -46.5t-30 -33.5q-23 -12 -47.5 -4t-34.5 31l-252 507l-235 -512q-10 -23 -34 -30.5t-46 2.5q-35 16 -35 55z" />
<glyph unicode="_" horiz-adv-x="1081" d="M8 -461q0 27 17.5 44.5t44.5 17.5h661q27 0 44.5 -17.5t17.5 -44.5t-17.5 -44t-44.5 -17h-661q-27 0 -44.5 17.5t-17.5 43.5z" />
<glyph unicode="a" horiz-adv-x="1361" d="M0 -8q0 111 42 207t122 172t181 114.5t212 38.5t214 -36.5t179 -116.5l37 -39v131q0 27 18.5 44t45.5 17t45 -17.5t18 -43.5v-940q0 -27 -18.5 -45.5t-44.5 -18.5q-27 0 -45.5 18.5t-18.5 45.5v131l-37 -39q-76 -80 -179 -118t-214 -38t-212 40t-181 116t-122 173 t-42 204zM127 -8q0 -84 34 -158t92 -129t136 -87t168 -32q88 0 167 32t137.5 87t92 129t33.5 158t-33.5 158.5t-92 130t-137.5 87t-167 31.5q-90 0 -168 -31.5t-136 -87t-92 -130t-34 -158.5z" />
<glyph unicode="b" horiz-adv-x="1277" d="M0 -467v1917q0 29 18.5 47.5t47.5 18.5q27 0 45 -18.5t18 -47.5v-1092l39 39q80 80 182.5 120t218.5 40q117 0 219.5 -41t182.5 -119q82 -78 125 -176t43 -209t-43 -210t-125 -177q-80 -78 -182.5 -117.5t-219.5 -39.5t-220 37.5t-181 119.5l-39 41v-133q0 -29 -18.5 -47 t-44.5 -18q-29 0 -47.5 18t-18.5 47zM129 12q0 -86 35 -161.5t94 -132t140 -89t171 -32.5q92 0 172 32.5t139.5 89t94.5 132t35 161.5t-35 162t-94.5 131t-139 88t-172.5 33q-90 0 -171 -33t-140 -88t-94 -131t-35 -162z" />
<glyph unicode="c" horiz-adv-x="1032" d="M0 0q0 223 164 377q80 76 181 115.5t212 39.5q98 0 190.5 -32.5t167.5 -91.5q20 -16 23.5 -42t-12.5 -47q-16 -23 -42 -24.5t-48 14.5q-121 96 -279 97q-90 0 -168 -32t-136 -87.5t-92 -129t-34 -157.5t34 -157.5t92 -129t136 -87.5t168 -32q158 0 279 97q23 16 48 14 t42 -24q16 -20 13 -46t-24 -43q-76 -59 -168 -91.5t-190 -32.5q-111 0 -212 39.5t-181 115.5q-164 154 -164 377z" />
<glyph unicode="d" horiz-adv-x="1392" d="M0 12q0 111 43 209t125 176q80 78 182.5 119t218.5 41q117 0 219.5 -40t182.5 -120l39 -39v1092q0 29 18 47.5t47 18.5q27 0 45.5 -18.5t18.5 -47.5v-1917q0 -29 -18.5 -47t-45.5 -18q-29 0 -47 18t-18 47v133l-39 -41q-78 -82 -181.5 -119.5t-220.5 -37.5t-219 39.5 t-182 117.5q-82 78 -125 177.5t-43 209.5zM129 12q0 -86 35 -161.5t94 -132t140 -89t171 -32.5q92 0 172 32.5t139.5 89t94.5 132t35 161.5t-35 162t-94.5 131t-139 88t-172.5 33q-90 0 -171 -33t-140 -88t-94 -131t-35 -162z" />
<glyph unicode="e" horiz-adv-x="1314" d="M0 0q0 223 164 377q80 76 181 115.5t212 39.5q88 0 170 -25.5t151.5 -71.5t122 -111.5t80.5 -145.5q33 -88 33 -178q0 -27 -18.5 -45t-44.5 -18h-920q12 -74 50 -136.5t94.5 -108.5t129 -72t152.5 -26q158 0 279 97q23 16 48 14t42 -24q16 -20 13 -46t-24 -43 q-76 -59 -168 -91.5t-190 -32.5q-111 0 -212 39.5t-181 115.5q-164 154 -164 377zM131 63h852q-4 18 -9 37t-11 35q-23 61 -64 110.5t-94 85.5t-116.5 55.5t-131.5 19.5q-80 0 -152.5 -26t-129 -72t-94.5 -108.5t-50 -136.5z" />
<glyph unicode="f" horiz-adv-x="612" d="M0 -467v1669q0 63 24.5 120.5t67.5 100.5t99.5 68t121.5 25h174q29 0 47.5 -18.5t18.5 -47.5q0 -27 -18.5 -45.5t-47.5 -18.5h-174q-78 0 -131 -53t-53 -131v-645h188q27 0 45.5 -19.5t18.5 -45.5q0 -27 -18.5 -46.5t-45.5 -19.5h-188v-893q0 -29 -18.5 -47t-44.5 -18 q-29 0 -47.5 18t-18.5 47z" />
<glyph unicode="g" horiz-adv-x="1386" d="M0 8q0 111 43 210t125 177q80 78 182.5 118t218.5 40q117 0 220.5 -38t181.5 -120l39 -41v133q0 29 18 47.5t47 18.5q27 0 45.5 -18.5t18.5 -47.5v-1437q0 -111 -43 -210.5t-125 -176.5q-80 -78 -182.5 -118t-219.5 -40q-129 0 -258 59q-113 55 -196 158q-16 20 -13.5 47 t23.5 43q23 16 49.5 14t42.5 -24q57 -76 152 -121q98 -47 200 -47q92 0 172 33t139.5 89t94.5 132t35 162v612l-39 -39q-80 -80 -182.5 -120t-219.5 -40t-219 41t-182 119q-82 78 -125 176.5t-43 208.5zM129 8q0 -86 35 -160.5t94 -131t140 -89.5t171 -33q92 0 172 33 t139.5 89.5t94.5 131t35 160.5t-35 162t-94.5 132t-139 89t-172.5 33q-90 0 -171 -33t-140 -89t-94 -132t-35 -162z" />
<glyph unicode="h" horiz-adv-x="1288" d="M0 -467v1917q0 29 18.5 47.5t47.5 18.5q27 0 45 -18.5t18 -47.5v-1092l39 39q80 80 182.5 120t218.5 40q117 0 219.5 -41t182.5 -119q82 -78 125 -176t43 -209v-479q0 -29 -18.5 -47t-45.5 -18q-29 0 -47 18t-18 47v479q0 86 -35 162t-94.5 131t-139 88t-172.5 33 q-90 0 -171 -33t-140 -88t-94 -131t-35 -162v-479q0 -29 -18.5 -47t-44.5 -18q-29 0 -47.5 18t-18.5 47z" />
<glyph unicode="i" horiz-adv-x="518" d="M141 446q0 27 18.5 46.5t47.5 19.5q27 0 46 -19.5t19 -46.5v-929q0 -29 -19 -47.5t-46 -18.5q-29 0 -47.5 18.5t-18.5 47.5v929zM154 768q0 23 15 37t38 14q51 0 51 -51q0 -23 -14.5 -38t-36.5 -15q-23 0 -38 15t-15 38z" />
<glyph unicode="j" horiz-adv-x="520" d="M143 446q0 27 18.5 46.5t47.5 19.5q27 0 46 -19.5t19 -46.5v-1609q0 -29 -19 -47.5t-46 -18.5q-29 0 -47.5 18.5t-18.5 47.5v1609zM156 768q0 23 15 37t38 14q51 0 51 -51q0 -23 -14.5 -38t-36.5 -15q-23 0 -38 15t-15 38z" />
<glyph unicode="k" horiz-adv-x="909" d="M0 -467v1917q0 29 18.5 47.5t47.5 18.5q27 0 45 -18.5t18 -47.5v-1284l57 53l338 320q20 18 47 17t45 -19q18 -20 17.5 -47t-19.5 -46l-295 -276l506 -594q16 -20 14.5 -47t-22.5 -43q-16 -16 -41 -16q-31 0 -49 22l-502 588l-96 -90v-455q0 -29 -18.5 -47t-44.5 -18 q-29 0 -47.5 18t-18.5 47z" />
<glyph unicode="l" horiz-adv-x="526" d="M143 -467v1917q0 29 18.5 47.5t47.5 18.5q27 0 45 -18.5t18 -47.5v-1917q0 -29 -18 -47t-45 -18q-29 0 -47.5 18t-18.5 47z" />
<glyph unicode="m" horiz-adv-x="2473" d="M135 -469v938q0 27 18.5 45t45.5 18t45 -18t18 -45v-131l37 39q78 80 180.5 117.5t212.5 37.5q111 0 212.5 -39.5t180.5 -115.5q29 -29 54.5 -60.5t46.5 -68.5q20 37 45.5 68.5t54.5 60.5q80 76 181.5 115.5t211.5 39.5q113 0 214.5 -39.5t179.5 -115.5 q164 -154 163 -377v-467q0 -27 -18 -45t-45 -18t-45.5 18t-18.5 45v467q0 84 -33.5 157.5t-92 129t-137.5 87.5t-167 32q-90 0 -167.5 -32t-136 -87.5t-92.5 -129t-34 -157.5v-469q0 -27 -18.5 -45t-44.5 -18q-27 0 -45.5 18t-18.5 45v469q0 84 -33.5 157.5t-92 129 t-137.5 87.5t-167 32q-90 0 -168 -32t-136 -87.5t-92 -129t-34 -157.5v-469q0 -27 -18.5 -45t-44.5 -18q-27 0 -45.5 18t-18.5 45z" />
<glyph unicode="n" horiz-adv-x="1486" d="M135 461q0 27 18.5 45t45.5 18t45 -18.5t18 -44.5v-131l37 39q76 80 179.5 117.5t213.5 37.5q111 0 212 -39.5t181 -115.5q164 -154 164 -377v-469q0 -27 -18.5 -45.5t-44.5 -18.5q-27 0 -45.5 18.5t-18.5 45.5v469q0 84 -33.5 157.5t-92 129t-137.5 87t-167 31.5 q-90 0 -168 -31.5t-136 -87t-92 -129t-34 -157.5v-469q0 -27 -18.5 -45.5t-44.5 -18.5q-27 0 -45.5 18.5t-18.5 45.5v938z" />
<glyph unicode="o" horiz-adv-x="1353" d="M0 0q0 223 164 377q80 76 181 115.5t212 39.5t212 -39.5t181 -115.5q164 -154 164 -377t-164 -377q-80 -76 -181 -115.5t-212 -39.5t-212 39.5t-181 115.5q-164 154 -164 377zM127 0q0 -84 34 -157.5t92 -129t136 -87.5t168 -32q88 0 167 32t137.5 87.5t92 129 t33.5 157.5t-33.5 157.5t-92 129t-137.5 87.5t-167 32q-90 0 -168 -32t-136 -87.5t-92 -129t-34 -157.5z" />
<glyph unicode="p" horiz-adv-x="1228" d="M0 487q0 29 18.5 47.5t47.5 18.5q27 0 45 -18.5t18 -47.5v-133l39 41q78 82 181.5 120t219.5 38q117 0 219.5 -40t182.5 -118q82 -78 125 -177t43 -210t-43 -209t-125 -176q-80 -78 -182.5 -119t-219.5 -41t-219 40t-182 120l-39 39v-1092q0 -29 -18.5 -47t-44.5 -18 q-29 0 -47.5 18.5t-18.5 46.5v1917zM129 8q0 -86 35 -160.5t94 -131t140 -89.5t171 -33q92 0 172 33t139.5 89.5t94.5 131t35 160.5t-35 162t-94.5 132t-139 89t-172.5 33q-90 0 -171 -33t-140 -89t-94 -132t-35 -162z" />
<glyph unicode="q" horiz-adv-x="1386" d="M0 8q0 111 43 210t125 177q80 78 182.5 118t218.5 40q117 0 220.5 -38t181.5 -120l39 -41v133q0 29 18 47.5t47 18.5q27 0 45.5 -18.5t18.5 -47.5v-1917q0 -29 -18.5 -47t-45.5 -18q-29 0 -47 18.5t-18 46.5v1092l-39 -39q-80 -80 -182.5 -120t-219.5 -40t-219 41 t-182 119q-82 78 -125 176.5t-43 208.5zM129 8q0 -86 35 -160.5t94 -131t140 -89.5t171 -33q92 0 172 33t139.5 89.5t94.5 131t35 160.5t-35 162t-94.5 132t-139 89t-172.5 33q-90 0 -171 -33t-140 -89t-94 -132t-35 -162z" />
<glyph unicode="r" horiz-adv-x="1017" d="M0 461q0 27 18.5 45t44.5 18q27 0 45.5 -18.5t18.5 -44.5v-131l37 39q76 80 179 117.5t214 37.5t211 -38.5t178 -112.5q18 -16 18.5 -43t-16.5 -45q-18 -20 -43.5 -21.5t-44.5 17.5q-126 116 -300 116h-3q-90 0 -168 -31.5t-136 -87t-92 -129t-34 -157.5v-469 q0 -27 -18.5 -45.5t-45.5 -18.5t-45 18.5t-18 45.5v938z" />
<glyph unicode="s" horiz-adv-x="1028" d="M2 221v51q0 125 127 205q57 37 127 54.5t147 17.5q160 0 273 -72q129 -84 129 -205q0 -25 -18.5 -43t-43.5 -18q-27 0 -44 18.5t-17 42.5q0 16 -12.5 44t-59.5 57q-84 53 -207 53t-206 -53q-47 -29 -59.5 -56.5t-12.5 -44.5v-51q0 -16 12.5 -42.5t59.5 -55.5 q39 -25 90 -39t106 -14h10q78 0 146.5 -19.5t126.5 -54.5q129 -82 129 -203v-53q0 -121 -129 -203q-57 -35 -126 -54.5t-147 -19.5t-147.5 19.5t-126.5 54.5q-127 80 -127 203q0 27 17.5 45t43.5 18q27 0 44.5 -18t17.5 -45q0 -16 12.5 -43t59.5 -55q41 -27 94 -41.5 t112 -14.5t112.5 14.5t94.5 41.5q47 29 59.5 55.5t12.5 42.5v53q0 16 -12.5 43t-59.5 58q-39 23 -90 37t-108 16q-2 -2 -9 -2q-78 0 -147.5 19.5t-126.5 53.5q-127 80 -127 203z" />
<glyph unicode="t" horiz-adv-x="800" d="M0 496q0 27 18.5 45t44.5 18h181v404q0 25 18.5 43t44.5 18q25 0 43.5 -18.5t18.5 -42.5v-404h327q27 0 45.5 -18.5t18.5 -44.5q0 -27 -18.5 -45.5t-45.5 -18.5h-327v-901q0 -27 -18.5 -45t-43.5 -18q-27 0 -45 18t-18 45v901h-181q-27 0 -45 18.5t-18 45.5z" />
<glyph unicode="u" horiz-adv-x="1499" d="M135 0v469q0 27 18.5 45t45.5 18t45 -18t18 -45v-469q0 -84 34 -157.5t92 -129t136 -87.5t168 -32q88 0 167 32t137.5 87.5t92 129t33.5 157.5v469q0 27 18.5 45t45.5 18q25 0 42 -16t21 -41v-6v-469v-469q0 -27 -18.5 -45t-44.5 -18q-27 0 -45.5 18t-18.5 45v131 l-37 -39q-76 -80 -179 -117.5t-214 -37.5t-212 39.5t-181 115.5q-164 154 -164 377z" />
<glyph unicode="v" horiz-adv-x="1196" d="M5 491.5q9 24.5 32 34.5q25 10 49.5 1t34.5 -31l371 -813l368 813q10 23 36 32t48 -2q25 -10 34 -34.5t-1 -49.5l-428 -938q-16 -36 -57 -36q-43 0 -58 36l-428 938q-10 25 -1 49.5z" />
<glyph unicode="w" horiz-adv-x="1804" d="M5 491.5q9 24.5 32 34.5q25 10 49.5 1t34.5 -31l371 -813l233 516l-111 243q-10 25 -0.5 49.5t31.5 34.5q25 10 49.5 1t34.5 -31l66 -146l65 146q10 23 36 32t48 -2q25 -10 34 -34.5t-1 -49.5l-113 -243l236 -516l370 813q10 23 34.5 31.5t49.5 -1.5q23 -10 32 -34.5 t-1 -49.5l-428 -938q-16 -36 -55 -36h-2q-43 0 -58 36l-247 541l-246 -541q-16 -36 -55 -36h-2q-43 0 -58 36l-428 938q-10 25 -1 49.5z" />
<glyph unicode="x" horiz-adv-x="1064" d="M0 -472q0 26 16 46l390 426l-390 426q-16 20 -16 46t20 44q20 16 46 16t45 -20l381 -418l380 418q16 20 43 20t46 -16q20 -18 21 -44t-17 -46l-387 -426l387 -426q18 -20 17 -46t-21 -44q-23 -16 -41 -16q-29 0 -48 20l-380 418l-381 -418q-18 -20 -48 -20q-20 0 -43 16 q-20 18 -20 44z" />
<glyph unicode="y" horiz-adv-x="1343" d="M3 486.5q7 25.5 32 37.5q23 12 48.5 5t37.5 -31l450 -844l447 844q12 25 37.5 31.5t48.5 -5.5q25 -12 32 -37.5t-6 -48.5l-499 -954l-508 -965q-18 -35 -57 -35q-16 0 -31 9q-25 12 -32 37.5t5 48.5l492 936l-492 923q-12 23 -5 48.5z" />
<glyph unicode="z" horiz-adv-x="1040" d="M0 469q0 27 18.5 45t44.5 18h857q41 0 57 -36q6 -15 6 -28q0 -23 -18 -42l-758 -832h713q27 0 44 -18t17 -45t-17.5 -45t-43.5 -18h-857q-43 0 -57 36q-6 16 -6 29q0 23 16 41l760 832h-713q-27 0 -45 18t-18 45z" />
<glyph unicode="|" horiz-adv-x="419" d="M0 -672v2327q0 29 18.5 47t47.5 18q27 0 45 -18.5t18 -46.5v-2327q0 -29 -18 -47t-45 -18q-29 0 -47.5 18.5t-18.5 46.5z" />
<glyph unicode="&#xad;" horiz-adv-x="1001" d="M141 -31q0 27 17.5 44.5t44.5 17.5h456q27 0 44.5 -17.5t17.5 -44.5t-17.5 -44t-44.5 -17h-456q-27 0 -44.5 17.5t-17.5 43.5z" />
<glyph unicode="&#xb0;" horiz-adv-x="1421" d="M672 1288q0 45 18.5 87t49 73t71.5 49.5t88 18.5t89 -18.5t73 -49.5t48 -73t17 -87q0 -47 -17 -88t-48 -71.5t-73 -49t-89 -18.5t-88 18.5t-71.5 49t-49 71.5t-18.5 88zM801 1288q0 -41 28.5 -70.5t69.5 -29.5t70.5 29.5t29.5 70.5t-29.5 71t-70.5 30t-69.5 -30 t-28.5 -71z" />
<glyph unicode="&#xba;" horiz-adv-x="1421" d="M672 1288q0 45 18.5 87t49 73t71.5 49.5t88 18.5t89 -18.5t73 -49.5t48 -73t17 -87q0 -47 -17 -88t-48 -71.5t-73 -49t-89 -18.5t-88 18.5t-71.5 49t-49 71.5t-18.5 88zM801 1288q0 -41 28.5 -70.5t69.5 -29.5t70.5 29.5t29.5 70.5t-29.5 71t-70.5 30t-69.5 -30 t-28.5 -71z" />
<glyph unicode="&#xbf;" horiz-adv-x="1062" d="M0 31q0 127 131 209q90 59 215 71v807q0 27 18.5 45.5t45.5 18.5t45 -18.5t18 -45.5v-866q0 -27 -18.5 -45.5t-44.5 -18.5q-59 0 -115.5 -14t-97.5 -41q-47 -29 -59.5 -57.5t-12.5 -44.5v-285q0 -16 12.5 -44t59.5 -58q41 -27 97 -40.5t116 -13.5q59 0 114.5 13.5 t96.5 40.5q47 31 59 58.5t12 43.5v102q0 27 18.5 45.5t45.5 18.5t45 -18.5t18 -45.5v-102q0 -61 -33.5 -114.5t-97.5 -94.5q-57 -37 -129 -55.5t-149 -18.5q-78 0 -151 19.5t-128 54.5q-131 82 -131 209v285zM334 1356q0 31 22.5 52.5t53.5 21.5t52 -21.5t21 -52.5 q0 -33 -21.5 -54.5t-51.5 -21.5q-31 0 -53.5 21.5t-22.5 54.5z" />
<glyph unicode="&#xc0;" horiz-adv-x="1452" d="M0 -485v1681q0 66 24.5 123t67.5 100t100.5 67.5t122.5 24.5h516q66 0 123.5 -24.5t100.5 -67.5t67.5 -100t24.5 -123v-1681q0 -29 -18.5 -47.5t-47.5 -18.5q-27 0 -46 18.5t-19 47.5v901h-885v-901q0 -29 -19.5 -47.5t-45.5 -18.5q-29 0 -47.5 18.5t-18.5 47.5zM131 545 h885v651q0 78 -53.5 131t-131.5 53h-516q-78 0 -131 -53t-53 -131v-651zM316.5 2087q-1.5 27 19.5 47q20 20 47 19t45 -19l383 -383q18 -18 19 -45t-19 -47t-47 -19.5t-45 19.5l-383 383q-18 18 -19.5 45z" />
<glyph unicode="&#xc1;" horiz-adv-x="1454" d="M0 -485q0 -29 18.5 -47.5t47.5 -18.5q27 0 46 18.5t19 47.5v903h887v-903q0 -29 19.5 -47.5t45.5 -18.5q29 0 47.5 18.5t18.5 47.5v1685q0 66 -24.5 123t-67.5 100t-100.5 68t-122.5 25h-519q-66 0 -123 -25t-100 -68t-67.5 -100t-24.5 -123v-1685zM131 549v651 q0 78 53.5 131t130.5 53h519q78 0 131 -53t53 -131v-651h-887zM318.5 1711q0.5 26 19.5 46l381 383q18 20 46 20.5t48 -20.5q20 -20 19 -47t-19 -45l-383 -383q-20 -20 -46 -20t-46 20t-19.5 46z" />
<glyph unicode="&#xc2;" horiz-adv-x="1452" d="M0 -485q0 -29 18.5 -47.5t47.5 -18.5q27 0 46 18.5t19 47.5v901h887v-901q0 -29 18.5 -47.5t44.5 -18.5q29 0 47.5 18.5t18.5 47.5v1681q0 66 -24.5 123t-67.5 100t-100.5 67.5t-123.5 24.5h-516q-66 0 -123 -24.5t-100 -67.5t-67.5 -100t-24.5 -123v-1681zM131 545v651 q0 78 53.5 132t130.5 54h516q78 0 132.5 -54t54.5 -132v-651h-887zM184 1729q0 25 19 43l313 339q14 20 45 21q29 0 47 -18l334 -334q20 -20 20.5 -46t-20.5 -46q-20 -20 -46 -20.5t-46 20.5l-285 284l-266 -289q-18 -20 -45 -21t-47 17q-23 23 -23 50z" />
<glyph unicode="&#xc3;" horiz-adv-x="1456" d="M0 -485q0 -29 18.5 -47.5t47.5 -18.5t47 18.5t18 47.5v905h891v-905q0 -29 18.5 -47.5t44.5 -18.5q29 0 47.5 18.5t18.5 47.5v1689q0 66 -24.5 123t-67.5 100t-100.5 68t-122.5 25h-519q-66 0 -124 -25t-101 -68t-67.5 -100t-24.5 -123v-1689zM131 551v653 q0 78 54.5 131.5t131.5 53.5h519q78 0 132 -53.5t54 -131.5v-653h-891zM133 1745q16 86 72.5 143.5t142.5 73.5t161 -14.5t122 -102.5v-2q25 -35 64.5 -52t82.5 -7t73 39.5t38 72.5q4 29 26.5 43.5t49.5 10.5q29 -4 43 -26.5t10 -49.5q-16 -86 -72.5 -144.5t-142.5 -74.5 q-14 -4 -27.5 -4h-25.5q-70 0 -129.5 31.5t-98.5 91.5h-2q-23 37 -63.5 54t-81.5 7q-43 -10 -74 -41t-39 -74q-4 -27 -26.5 -42t-49.5 -9q-27 4 -43 25.5t-10 50.5z" />
<glyph unicode="&#xc4;" horiz-adv-x="1443" d="M0 -465q0 -29 18.5 -47t47.5 -18q27 0 45 18t18 47v895h883v-895q0 -29 18.5 -47t44.5 -18q29 0 47.5 18t18.5 47v1671q0 66 -24.5 123t-67.5 99t-100.5 67t-121.5 25h-514q-66 0 -122 -25t-99 -67t-67.5 -99t-24.5 -123v-1671zM129 559v647q0 39 14.5 73t40 58.5t59 39 t70.5 14.5h514q37 0 71 -14.5t59.5 -39t40 -58.5t14.5 -73v-647h-883zM209 1747q0 33 22.5 55.5t55.5 22.5t54 -22.5t21 -55.5t-21.5 -54.5t-53.5 -21.5q-33 0 -55.5 21.5t-22.5 54.5zM776 1747q0 33 22.5 55.5t55.5 22.5t55.5 -22.5t22.5 -55.5t-22.5 -54.5t-55.5 -21.5 t-55.5 21.5t-22.5 54.5z" />
<glyph unicode="&#xc8;" horiz-adv-x="1292" d="M0 -238v1432q0 66 24.5 123t67.5 100t100.5 67.5t122.5 24.5h766q29 0 47.5 -18t18.5 -47q0 -27 -18.5 -45.5t-47.5 -18.5h-766q-78 0 -131 -54t-53 -132v-649h696q29 0 47.5 -19.5t18.5 -46.5q0 -29 -18.5 -47t-47.5 -18h-696v-652q0 -37 14.5 -70.5t39 -59t58 -40 t72.5 -14.5h766q29 0 47.5 -18.5t18.5 -46.5q0 -27 -18.5 -46.5t-47.5 -19.5h-766q-66 0 -123 24.5t-100 67.5t-67.5 100.5t-24.5 122.5zM317.5 2086q-0.5 28 18.5 46q20 18 47 18t45 -18l383 -381q20 -18 19 -46t-19 -46q-20 -20 -46 -19.5t-46 19.5l-383 381 q-18 18 -18.5 46z" />
<glyph unicode="&#xc9;" horiz-adv-x="1271" d="M0 -219q0 -66 24.5 -122t66.5 -99t99.5 -67.5t122.5 -24.5h760q29 0 47.5 19t18.5 46t-18.5 46.5t-47.5 19.5h-760q-39 0 -72.5 14t-58 38.5t-39 58.5t-14.5 71v645h692q27 0 46.5 19.5t19.5 46.5t-19.5 46t-46.5 19h-692v645q0 37 14.5 71t39 59.5t58 39.5t72.5 14h760 q29 0 47.5 18.5t18.5 45.5q0 29 -18.5 47.5t-47.5 18.5h-760q-66 0 -123 -25t-99 -68t-66.5 -100t-24.5 -121v-1421zM315.5 1708q-0.5 27 18.5 45l379 379q18 18 44.5 18t47.5 -18q18 -18 19 -46t-19 -46l-379 -377q-20 -20 -47 -20t-45 20q-18 18 -18.5 45z" />
<glyph unicode="&#xca;" horiz-adv-x="1294" d="M0 -238q0 -66 24.5 -123t67.5 -100t100.5 -67.5t122.5 -24.5h766q29 0 47.5 19.5t18.5 46.5q0 29 -18.5 47t-47.5 18h-766q-39 0 -72.5 14.5t-58 40t-39 59.5t-14.5 70v652h696q29 0 47.5 18.5t18.5 46.5q0 29 -18.5 47.5t-47.5 18.5h-696v651q0 37 14.5 70.5t39 59.5 t58 40t72.5 14h766q29 0 47.5 18.5t18.5 47.5q0 27 -18.5 46t-47.5 19h-766q-66 0 -123 -24.5t-100 -67.5t-67.5 -100t-24.5 -123v-1434zM184 1726q0 27 19 46l313 337q14 20 45 21q29 0 47 -19l334 -333q20 -20 20.5 -46t-20.5 -46q-18 -18 -46 -19.5t-46 19.5l-285 286 l-266 -291q-16 -20 -44 -20t-48 18q-23 18 -23 47z" />
<glyph unicode="&#xcb;" horiz-adv-x="1273" d="M0 -217q0 -66 24.5 -123t67.5 -99t99.5 -66.5t121.5 -24.5h762q29 0 47.5 18t18.5 45q0 29 -18.5 47.5t-47.5 18.5h-762q-37 0 -70.5 14t-59 38.5t-40 58.5t-14.5 73v647h694q27 0 45.5 18.5t18.5 45.5q0 29 -18.5 47t-45.5 18h-694v647q0 39 14.5 73t40 58.5t59 39 t70.5 14.5h762q29 0 47.5 18t18.5 45q0 29 -18.5 47.5t-47.5 18.5h-762q-66 0 -122 -25t-99 -68t-67.5 -100t-24.5 -121v-1423zM287 1747q0 33 22.5 55.5t55.5 22.5q31 0 53 -22.5t22 -55.5t-22.5 -55.5t-52.5 -22.5q-33 0 -55.5 22.5t-22.5 55.5zM854 1747q0 33 22.5 55.5 t55.5 22.5t55.5 -22.5t22.5 -55.5t-22.5 -55.5t-55.5 -22.5t-55.5 22.5t-22.5 55.5z" />
<glyph unicode="&#xcc;" horiz-adv-x="686" d="M1 2107q1 27 19 45q18 20 45 20.5t48 -20.5l381 -380q20 -20 20 -46.5t-20 -46.5t-46 -20t-47 20l-381 381q-20 20 -19 47zM252 -467v1931q0 27 19.5 46.5t45.5 19.5q29 0 47.5 -19.5t18.5 -46.5v-1931q0 -27 -18.5 -46t-47.5 -19q-27 0 -46 19t-19 46z" />
<glyph unicode="&#xcd;" horiz-adv-x="563" d="M-2 1705q0 26 20 46l381 381q20 20 47 20t46 -20q18 -18 19 -45t-19 -47l-381 -381q-20 -20 -46.5 -20t-46.5 20t-20 46zM129 -487v1931q0 27 18.5 46t47.5 19q27 0 46 -19.5t19 -45.5v-1931q0 -27 -19 -46.5t-46 -19.5q-29 0 -47.5 19.5t-18.5 46.5z" />
<glyph unicode="&#xd1;" horiz-adv-x="1445" d="M0 -467q0 -27 18.5 -45t47.5 -18q27 0 45 18t18 45v1663l891 -1694q16 -33 57 -32h17q49 12 49 63v1925q0 27 -18.5 46.5t-47.5 19.5q-27 0 -46 -18.5t-19 -47.5v-1661l-889 1692l-2 2l-2 2v2l-2 2q-4 4 -8.5 8t-8.5 8h-2q-14 8 -24 9h-2v2h-4h-2h-5h-2l-2 -2h-2h-2h-2 h-2h-2v-2h-2h-2q-2 0 -2 -2h-4l-2 -2q-2 0 -2 -3h-2h-2v-2h-2q-14 -14 -17 -18v-2h-2v-2q-2 -4 -4 -9t-4 -12v-2v-2v-2v-2v-2v-1925zM133 1745q16 86 71.5 143.5t141.5 73.5q82 16 157 -15.5t122 -101.5l2 -2q23 -35 62.5 -52t82.5 -7q41 10 71.5 40.5t39.5 71.5 q4 29 25.5 43.5t49.5 10.5q27 -4 41.5 -26.5t10.5 -49.5q-16 -86 -73.5 -143.5t-139.5 -73.5q-14 -4 -28 -4h-26q-68 0 -128 30.5t-99 90.5v2q-23 35 -62.5 52t-82.5 7q-41 -10 -72 -40t-39 -73q-4 -27 -25.5 -43t-50.5 -10q-27 4 -41 26.5t-10 49.5z" />
<glyph unicode="&#xd2;" horiz-adv-x="1394" d="M0 -166v1288q0 86 51 162q41 63 129 121q78 49 180.5 76.5t212.5 27.5q111 0 213.5 -26.5t182.5 -77.5q82 -51 127 -121q51 -76 51 -162v-1288q0 -86 -51 -160q-25 -35 -55.5 -65.5t-71.5 -57.5q-80 -51 -182.5 -77.5t-213.5 -26.5t-213 26.5t-180 77.5q-41 27 -72.5 58 t-56.5 65q-51 74 -51 160zM131 -166q0 -96 119 -172q63 -41 147 -62.5t176 -21.5t176.5 21.5t147.5 62.5q119 76 119 172v1288q0 98 -119 174q-63 41 -147.5 62.5t-176.5 21.5t-176 -21.5t-147 -62.5q-119 -76 -119 -174v-1288zM317.5 2086q-0.5 28 18.5 46q20 18 47 18 t45 -18l383 -381q20 -18 19 -46t-19 -46q-20 -20 -46 -19.5t-46 19.5l-383 381q-18 18 -18.5 46z" />
<glyph unicode="&#xd3;" horiz-adv-x="1394" d="M0 -166v1288q0 86 51 162q45 70 127 121q80 51 182.5 77.5t212.5 26.5q111 0 213.5 -27.5t180.5 -76.5q88 -57 129 -121q51 -76 51 -162v-1288q0 -86 -51 -160q-25 -35 -56.5 -65.5t-72.5 -57.5q-78 -51 -180.5 -77.5t-213.5 -26.5t-213 26.5t-182 77.5q-41 27 -71.5 58 t-55.5 65q-51 74 -51 160zM131 -166q0 -96 119 -172q63 -41 147 -62.5t176 -21.5t176.5 21.5t147.5 62.5q119 76 119 172v1288q0 98 -119 174q-63 41 -147.5 62.5t-176.5 21.5t-176 -21.5t-147 -62.5q-119 -76 -119 -174v-1288zM316.5 1705q-1.5 28 19.5 46l383 381 q18 18 45 18t47 -18q18 -18 18 -46t-18 -46l-383 -381q-20 -18 -46 -19t-46 19q-18 18 -19.5 46z" />
<glyph unicode="&#xd4;" horiz-adv-x="1402" d="M0 -162v1299q0 86 51 161q45 70 129 123q80 51 182.5 78t215.5 27t215 -26.5t182 -78.5q82 -53 129 -123q51 -76 51 -161v-1299q0 -88 -51 -164q-43 -68 -129 -120q-80 -51 -182 -79t-215 -28t-215.5 27.5t-182.5 79.5q-86 53 -129 120q-51 76 -51 164zM131 -162 q0 -47 31 -92t88 -82q66 -41 149.5 -63.5t178.5 -22.5q94 0 178 22.5t149 63.5q119 76 119 174v1299q0 98 -119 174q-66 41 -149.5 62.5t-177.5 21.5t-178.5 -21.5t-149.5 -62.5q-57 -37 -88 -82t-31 -92v-1299zM186 1745q0 25 19 43l315 342q14 20 45 20t49 -18l336 -336 q20 -20 20.5 -47t-20.5 -47q-20 -20 -46.5 -19.5t-45.5 19.5l-289 289l-268 -291q-18 -20 -46 -21.5t-48 17.5q-21 20 -21 49z" />
<glyph unicode="&#xd5;" horiz-adv-x="1388" d="M0 -145v1280q0 86 51 161q45 68 127 119q80 51 180.5 78t210.5 27q111 0 212.5 -27t181.5 -78q82 -51 127 -119q51 -76 51 -161v-1280q0 -86 -51 -162q-47 -68 -127 -121q-80 -49 -181.5 -75.5t-212.5 -26.5t-211 26.5t-180 75.5q-80 53 -127 121q-51 76 -51 162z M129 -145q0 -47 30.5 -91.5t88.5 -80.5q63 -41 146 -62.5t175 -21.5t175 21.5t149 62.5q57 35 88 79.5t31 92.5v1280q0 47 -31 91t-88 81q-66 41 -149 62.5t-175 21.5t-175 -21.5t-146 -62.5q-57 -37 -88 -81t-31 -91v-1280zM209 1747q0 33 22.5 55.5t55.5 22.5t54 -22.5 t21 -55.5t-21.5 -55.5t-53.5 -22.5q-33 0 -55.5 22.5t-22.5 55.5zM776 1747q0 33 22.5 55.5t55.5 22.5t55.5 -22.5t22.5 -55.5t-22.5 -55.5t-55.5 -22.5t-55.5 22.5t-22.5 55.5z" />
<glyph unicode="&#xd9;" horiz-adv-x="1435" d="M0 -4q0 -111 43 -210t127 -179q82 -78 184.5 -119t218.5 -41q117 0 219.5 41t184.5 119q170 164 170 389v1448q0 29 -18.5 47t-47.5 18q-27 0 -46 -18t-19 -47v-1448q0 -86 -35 -163t-95.5 -133t-140 -89t-172.5 -33q-92 0 -171.5 33t-140 89t-95.5 133t-35 163v1448 q0 29 -19 47t-46 18q-29 0 -47.5 -18t-18.5 -47v-1448zM317.5 2086q-0.5 28 18.5 46q20 18 47 18t45 -18l383 -381q20 -18 19 -46t-19 -46q-20 -20 -46 -19.5t-46 19.5l-383 381q-18 18 -18.5 46z" />
<glyph unicode="&#xda;" horiz-adv-x="1435" d="M0 -4q0 -111 43 -210t127 -179q82 -78 184.5 -119t218.5 -41q117 0 219.5 41t184.5 119q170 164 170 389v1448q0 29 -18.5 47t-47.5 18q-27 0 -46 -18t-19 -47v-1448q0 -86 -35 -163t-95.5 -133t-140 -89t-172.5 -33q-92 0 -171.5 33t-140 89t-95.5 133t-35 163v1448 q0 29 -19.5 47t-45.5 18q-29 0 -47.5 -18t-18.5 -47v-1448zM316.5 1705q-1.5 28 19.5 46l383 381q18 18 45 18t47 -18q18 -18 18 -46t-18 -46l-383 -381q-20 -18 -46 -19t-46 19q-18 18 -19.5 46z" />
<glyph unicode="&#xdc;" horiz-adv-x="1427" d="M0 14q0 -111 43 -210t125 -177t183.5 -117.5t217.5 -39.5q117 0 219.5 39.5t184.5 117.5t125 177.5t43 209.5v1440q0 29 -18.5 47.5t-47.5 18.5q-27 0 -45 -18.5t-18 -47.5v-1440q0 -86 -35 -161.5t-95.5 -132t-140 -89t-172.5 -32.5q-90 0 -171 32.5t-140 89t-94 132 t-35 161.5v1440q0 29 -18.5 47.5t-44.5 18.5q-29 0 -47.5 -18.5t-18.5 -47.5v-1440zM209 1747q0 33 22.5 55.5t55.5 22.5t54 -22.5t21 -55.5t-21.5 -55.5t-53.5 -22.5q-33 0 -55.5 22.5t-22.5 55.5zM776 1747q0 33 22.5 55.5t55.5 22.5t55.5 -22.5t22.5 -55.5t-22.5 -55.5 t-55.5 -22.5t-55.5 22.5t-22.5 55.5z" />
<glyph unicode="&#xdd;" horiz-adv-x="1368" d="M2 1463.5q-8 -25.5 6 -50.5l504 -944v-956q0 -27 18.5 -46.5t47.5 -19.5q27 0 45 19.5t18 46.5v956l498 946q12 23 5 48.5t-32 39.5q-25 12 -50.5 4t-37.5 -32l-449 -850l-452 850q-12 25 -39 33t-49 -5q-25 -14 -33 -39.5zM316.5 1705q-1.5 28 19.5 46l383 381 q18 18 45 18t47 -18q18 -18 18 -46t-18 -46l-383 -381q-20 -18 -46 -19t-46 19q-18 18 -19.5 46z" />
<glyph unicode="&#xe0;" horiz-adv-x="1435" d="M0 6q0 111 42 210t128 179q82 78 184.5 119t218.5 41q117 0 222.5 -39t183.5 -121l39 -41v135q0 29 18 47.5t47 18.5q27 0 46.5 -18.5t19.5 -47.5v-966q0 -29 -19.5 -47.5t-46.5 -18.5q-29 0 -47 18.5t-18 47.5v135l-39 -41q-78 -82 -183.5 -121t-222.5 -39t-219 41 t-184 119q-86 80 -128 179.5t-42 209.5zM131 6q0 -86 35 -162.5t95.5 -133t140 -89.5t171.5 -33t173 33t141.5 89.5t95.5 133t35 162.5t-35 163t-95.5 133t-141 89t-173.5 33q-92 0 -171.5 -33t-140 -89t-95.5 -133t-35 -163zM398.5 1195q-1.5 26 19.5 46q18 18 46 19.5 t46 -19.5l381 -383q18 -20 19 -46t-19 -46q-18 -18 -46 -19.5t-46 19.5l-381 383q-18 20 -19.5 46z" />
<glyph unicode="&#xe1;" horiz-adv-x="1456" d="M0 6q0 -111 42 -210t128 -179q82 -78 184.5 -119t218.5 -41q117 0 222.5 39t183.5 121l39 41v-135q0 -29 18.5 -47.5t46.5 -18.5q27 0 46.5 18.5t19.5 47.5v966q0 29 -19.5 47.5t-46.5 18.5q-29 0 -47 -18.5t-18 -47.5v-135l-39 41q-78 82 -183.5 121t-222.5 39t-219 -41 t-184 -119q-86 -80 -128 -179t-42 -210zM131 6q0 86 35 163t95.5 133t140 89t171.5 33t173 -33t141.5 -89t95.5 -133t35 -163t-35 -162.5t-95.5 -133t-141.5 -89.5t-173 -33t-171.5 33t-140 89.5t-95.5 133t-35 162.5zM318.5 812q0.5 26 19.5 46l381 383q18 20 46 19.5 t46 -19.5q20 -20 19 -46t-19 -46l-381 -383q-18 -20 -46 -19t-46 19q-20 20 -19.5 46z" />
<glyph unicode="&#xe2;" horiz-adv-x="1458" d="M0 6q0 -111 42 -210t128 -179q82 -78 184.5 -119t218.5 -41q117 0 221.5 40t184.5 120l39 39v-135q0 -27 18.5 -45.5t46.5 -18.5q29 0 47.5 18.5t18.5 45.5v968q0 29 -18.5 47.5t-47.5 18.5t-47 -18.5t-18 -47.5v-135l-39 41q-78 82 -183.5 121t-222.5 39t-219 -41 t-184 -119q-86 -80 -128 -179t-42 -210zM131 6q0 86 35 162t95.5 133t140 90t171.5 33t173 -33t141.5 -90t95.5 -133t35 -162t-35 -162.5t-95.5 -134t-141.5 -90.5t-173 -33t-171.5 33t-140 90.5t-95.5 134t-35 162.5zM186 834q0 29 17 45l313 338q16 18 47 22q27 0 47 -20 l334 -334q18 -18 18.5 -45t-18.5 -47q-18 -18 -46 -18.5t-46 18.5l-287 286l-266 -291q-16 -20 -44 -20t-48 18q-21 19 -21 48z" />
<glyph unicode="&#xe3;" horiz-adv-x="1443" d="M0 8q0 -111 44 -212t126 -179q172 -162 408 -162q117 0 223 40t184 122l39 41v-137q0 -27 19.5 -46.5t46.5 -19.5q29 0 48 19.5t19 46.5v975q0 29 -19 47t-48 18q-27 0 -46.5 -18.5t-19.5 -46.5v-136l-39 41q-78 82 -184.5 121t-222.5 39q-117 0 -219.5 -40t-188.5 -120 q-82 -78 -126 -179t-44 -214zM131 8q0 88 35 165t96.5 134.5t142 90t173.5 32.5q92 0 174 -32.5t142 -90t95 -134.5t35 -165q0 -86 -35 -162.5t-95 -134t-142 -90.5t-174 -33t-173 33t-142.5 90.5t-96.5 134t-35 162.5zM135 850q16 86 72.5 144.5t142.5 74.5t161 -15.5 t122 -103.5q25 -37 64.5 -54t82.5 -7t74 41t39 74q4 27 26.5 41t49.5 10q29 -6 44 -26.5t9 -49.5q-16 -86 -72.5 -144.5t-142.5 -74.5q-28 -6 -55 -6q-68 0 -128.5 32.5t-101.5 92.5q-25 37 -64.5 54t-82.5 7t-73 -41t-38 -74q-4 -27 -26.5 -43t-51.5 -10q-27 4 -42 26.5 t-9 51.5z" />
<glyph unicode="&#xe4;" horiz-adv-x="1441" d="M0 8q0 -113 44 -214t126 -179t186.5 -119t221.5 -41q236 0 407 160l39 43v-137q0 -29 18.5 -47.5t47.5 -18.5q27 0 46 18.5t19 47.5v973q0 29 -19 47t-46 18q-29 0 -47.5 -18.5t-18.5 -46.5v-136l-39 41q-80 84 -185.5 122t-221.5 38q-117 0 -221.5 -41t-186.5 -119 t-126 -179t-44 -212zM131 8q0 86 35 163t96.5 134t142 90t173.5 33q92 0 172.5 -33t142 -90t96.5 -134t35 -163q0 -88 -35 -164.5t-96.5 -134t-142 -90.5t-172.5 -33t-173 33t-142.5 90.5t-96.5 134t-35 164.5zM211 852q0 33 22.5 55.5t55.5 22.5t56.5 -22.5t23.5 -55.5 t-23.5 -55.5t-56.5 -22.5t-55.5 22.5t-22.5 55.5zM786 852q0 33 22.5 55.5t55.5 22.5t55.5 -22.5t22.5 -55.5t-22.5 -55.5t-55.5 -22.5t-55.5 22.5t-22.5 55.5z" />
<glyph unicode="&#xe8;" horiz-adv-x="1345" d="M0 6q0 -106 42 -202.5t122 -172.5q78 -74 179 -114.5t212 -40.5q98 0 189.5 32.5t166.5 92.5q20 16 23.5 41.5t-12.5 46.5q-16 20 -42 24t-49 -14q-59 -47 -129.5 -71.5t-146.5 -24.5q-80 0 -151.5 25.5t-128 71.5t-94.5 108.5t-50 134.5h916q27 0 45 18.5t18 44.5 q0 47 -8 91t-25 87q-29 80 -82 144.5t-121.5 110.5t-150.5 72t-168 26q-111 0 -212 -40t-179 -114q-164 -154 -164 -377zM131 70q12 72 50 134t94.5 108t128 72t151.5 26q68 0 131.5 -19.5t116.5 -55.5t93 -85t62 -111q6 -16 11.5 -33.5t7.5 -35.5h-846zM365 1154 q0 26 18 44t45 18.5t45 -18.5l369 -369q18 -18 18 -44t-18 -44t-44 -18t-44 18l-371 369q-18 18 -18 44z" />
<glyph unicode="&#xe9;" horiz-adv-x="1341" d="M0 6q0 223 164 377q78 74 179 114t212 40q86 0 168 -26t150.5 -72t122 -110.5t81.5 -144.5q16 -43 24.5 -87t8.5 -91q0 -27 -18.5 -45t-44.5 -18h-916q12 -72 50 -134.5t94.5 -108.5t128 -71.5t151.5 -25.5q76 0 146.5 24.5t129.5 71.5q23 18 48.5 14t42.5 -24 q16 -20 13 -46t-24 -42q-76 -59 -167 -92t-189 -33q-111 0 -212 41t-179 114q-80 76 -122 172.5t-42 202.5zM131 70h846q-2 18 -7 35.5t-12 33.5q-23 61 -62.5 110.5t-92.5 85.5t-116.5 55.5t-131.5 19.5q-80 0 -151.5 -26t-128 -72t-94.5 -108.5t-50 -133.5zM307.5 785 q-0.5 26 18.5 44l368 369q18 18 45 18.5t45 -18.5q18 -18 18.5 -44t-18.5 -44l-370 -369q-18 -18 -44 -18t-44 18t-18.5 44z" />
<glyph unicode="&#xea;" horiz-adv-x="1361" d="M0 -4q0 111 42 207t124 174q80 78 181.5 116.5t213.5 38.5q88 0 171 -25.5t152.5 -72.5t123 -112.5t82.5 -145.5q16 -43 24 -88t8 -92q0 -27 -18.5 -45.5t-44.5 -18.5h-926q12 -74 50 -137t95.5 -109t130 -73t152.5 -27q158 0 281 99q23 16 48 13t42 -24q16 -20 14 -46.5 t-24 -43.5q-76 -59 -168.5 -92t-192.5 -33q-113 0 -214 39t-181 117q-82 78 -124 174t-42 207zM133 59h856q-6 37 -18 72q-25 61 -65 111.5t-94 87.5t-117.5 56.5t-133.5 19.5q-80 0 -152.5 -27t-130 -74t-95.5 -109.5t-50 -136.5zM182 784q0 27 17 43l305 332q20 20 45 21 q29 0 47 -19l328 -327q18 -18 18 -45t-18 -46q-20 -18 -46 -18t-44 18l-281 281l-260 -283q-18 -20 -45 -21t-45 17q-21 18 -21 47z" />
<glyph unicode="&#xeb;" horiz-adv-x="1353" d="M0 -2q0 111 43 206t123 173q82 78 182.5 118t212.5 40q88 0 171 -26t151.5 -73t122 -113.5t84.5 -146.5q33 -88 32 -178q0 -29 -18.5 -47.5t-44.5 -18.5h-926q12 -74 50 -136t95.5 -108t130 -73t152.5 -27q158 0 281 99q23 16 48 13t42 -24q16 -23 14 -47t-24 -43 q-76 -59 -168.5 -92t-192.5 -33q-113 0 -214 40t-181 116t-123 173t-43 208zM133 61h856q-4 16 -7 34t-11 38q-47 123 -158 198t-252 75q-80 0 -152.5 -27t-130 -73t-95.5 -108.5t-50 -136.5zM221 797q0 33 21.5 55t54.5 22q31 0 53.5 -22.5t22.5 -54.5q0 -31 -22.5 -53.5 t-53.5 -22.5q-33 0 -54.5 22.5t-21.5 53.5zM780 797q0 33 22.5 55t53.5 22q33 0 54.5 -22.5t21.5 -54.5q0 -31 -21.5 -53.5t-54.5 -22.5q-31 0 -53.5 22.5t-22.5 53.5z" />
<glyph unicode="&#xec;" horiz-adv-x="520" d="M-159.5 1004q-0.5 28 18.5 47q18 18 44.5 18t47.5 -18l285 -283q20 -18 19 -46t-19 -46q-20 -20 -46 -19.5t-47 19.5l-284 282q-18 18 -18.5 46zM-6 -467v963q0 29 18.5 47t46.5 18q27 0 46.5 -18.5t19.5 -46.5v-963q0 -29 -19.5 -47t-46.5 -18q-29 0 -47 18t-18 47z" />
<glyph unicode="&#xed;" horiz-adv-x="428" d="M-119.5 722q-1.5 28 19.5 46l284 283q18 18 45 18t47 -18q18 -18 18.5 -46t-18.5 -47l-284 -282q-20 -20 -47 -20t-45 20q-18 18 -19.5 46zM10 -467v963q0 29 18.5 47t47.5 18t47 -18.5t18 -46.5v-963q0 -29 -18 -47t-47 -18t-47.5 18t-18.5 47z" />
<glyph unicode="&#xf1;" horiz-adv-x="1388" d="M0 459v-938q0 -27 18.5 -45.5t44.5 -18.5q27 0 45.5 18.5t18.5 45.5v469q0 84 34 157.5t92 129t136 87t168 31.5q88 0 166 -31.5t136.5 -87t92 -129t33.5 -157.5v-469q0 -27 18.5 -45.5t45.5 -18.5t45 18.5t18 45.5v469q0 106 -42 203.5t-122 173.5q-78 76 -179 114.5 t-212 38.5q-113 0 -214 -39t-179 -114l-19.5 -19.5t-17.5 -19.5v131q0 27 -18.5 44t-45.5 17t-45 -17.5t-18 -43.5zM129 799q16 80 71.5 137t135.5 74q80 16 153.5 -15.5t118.5 -99.5h2q23 -35 62 -52.5t80 -6.5q41 10 69.5 39.5t36.5 70.5q4 27 25.5 41t48.5 10t41 -26.5 t10 -46.5q-16 -80 -71.5 -137.5t-135.5 -73.5q-28 -6 -53 -6q-66 0 -124 30.5t-95 87.5l-2 2q-23 35 -62 51.5t-80 6.5t-69.5 -39t-36.5 -70q-4 -27 -25.5 -41t-48.5 -10t-41 25.5t-10 48.5z" />
<glyph unicode="&#xf2;" horiz-adv-x="1411" d="M4 -4q0 111 43 207t123 172q78 76 180.5 115.5t214.5 39.5q113 0 214.5 -39.5t181.5 -115.5t122.5 -172.5t42.5 -206.5q0 -111 -43 -208t-122 -173q-80 -76 -181.5 -116t-214.5 -40t-215 40t-180 116q-80 76 -123 173t-43 208zM131 -4q0 -84 34 -159t93 -130t138 -88 t169 -33t169 33t138.5 88t93 130t33.5 159t-33.5 158.5t-93 130t-138.5 87t-169 31.5t-169 -31.5t-138 -87t-93 -130t-34 -158.5zM315.5 1156q-0.5 26 18.5 46q18 18 45 18.5t45 -18.5l373 -375q18 -18 18 -45t-18 -45t-45 -18t-45 18l-373 375q-18 18 -18.5 44z" />
<glyph unicode="&#xf3;" horiz-adv-x="1406" d="M0 -4q0 111 43 207t123 172t181.5 115.5t213.5 39.5q113 0 215.5 -39.5t179.5 -115.5q80 -76 123 -172.5t43 -206.5q0 -111 -43 -208t-123 -173q-78 -76 -180 -116t-215 -40t-214 40t-181 116t-123 173t-43 208zM127 -4q0 -84 34 -159t93 -130t138 -88t169 -33t169 33 t138.5 88t93 130t33.5 159t-33.5 158.5t-93 130t-138.5 87t-169 31.5t-169 -31.5t-138 -87t-93 -130t-34 -158.5zM311.5 782q-0.5 27 18.5 45l372 375q18 18 45 18.5t46 -18.5q18 -20 18 -46t-18 -44l-373 -375q-18 -18 -45 -18t-45 18t-18.5 45z" />
<glyph unicode="&#xf4;" horiz-adv-x="1400" d="M-4 -4q0 111 42 206t122 173q82 78 183 117.5t214 39.5q111 0 212 -39.5t183 -117.5q80 -78 123 -173.5t43 -205.5q0 -111 -43 -208t-123 -173t-182 -116t-213 -40q-113 0 -215 40t-182 116t-122 173t-42 208zM123 -4q0 -84 33.5 -159t93 -130t138.5 -88t169 -33 q88 0 167 33t138.5 88t93 130t33.5 159t-33.5 158.5t-93 130t-138.5 87t-167 31.5q-90 0 -169 -31.5t-138.5 -87t-93 -130t-33.5 -158.5zM176 805q0 20 17 43l307 332q14 20 45 20q29 0 47 -18l326 -328q18 -18 18 -45t-18 -45t-45 -18.5t-46 18.5l-280 280l-260 -282 q-18 -20 -44 -21.5t-46 17.5q-21 18 -21 47z" />
<glyph unicode="&#xf6;" horiz-adv-x="1413" d="M6 -4q0 111 43 208t123 173t181.5 115.5t213.5 39.5q113 0 215.5 -39.5t180.5 -115.5q80 -76 122.5 -173.5t42.5 -207.5q0 -111 -43 -207t-122 -172q-78 -76 -180.5 -116t-215.5 -40t-214 40t-181 116t-123 172t-43 207zM133 -4q0 -84 34 -159t93 -130t138 -87t169 -32 t169 32t138.5 87t93 130t33.5 159q0 86 -33.5 160.5t-93 130t-138.5 87.5t-169 32t-169 -32t-138 -87.5t-93 -130t-34 -160.5zM211 817q0 33 22.5 55.5t53.5 22.5q33 0 55.5 -22.5t22.5 -55.5q0 -31 -23 -53.5t-55 -22.5q-31 0 -53.5 22.5t-22.5 53.5zM770 817 q0 33 22.5 55.5t55.5 22.5q31 0 53.5 -22.5t22.5 -55.5q0 -31 -22.5 -53.5t-53.5 -22.5q-33 0 -55.5 22.5t-22.5 53.5z" />
<glyph unicode="&#xf7;" horiz-adv-x="856" />
<glyph unicode="&#xf9;" horiz-adv-x="1419" d="M2 2v467q0 27 18.5 45t45.5 18t45 -18t18 -45v-467q0 -84 34 -157.5t91 -129t135 -87t168 -31.5q88 0 166 31.5t136.5 87t92 129t33.5 157.5v467q0 27 18.5 45t45.5 18q25 0 42 -17t19 -40q0 -2 1 -3t1 -3v-467v-467q0 -27 -18.5 -45t-44.5 -18q-27 0 -45.5 18t-18.5 45 v129l-37 -39q-74 -78 -177 -115.5t-214 -37.5t-212 39.5t-179 113.5q-164 154 -164 377zM362.5 1149q-0.5 27 18.5 45q18 18 45 18t45 -18l369 -369q18 -18 18 -45t-18 -45t-44 -18t-44 18l-371 369q-18 18 -18.5 45z" />
<glyph unicode="&#xfa;" horiz-adv-x="1419" d="M2 2q0 -223 164 -377q78 -74 179 -113.5t212 -39.5t214 37.5t177 115.5l37 39v-129q0 -27 18.5 -45t45.5 -18t45 18t18 45v467v467q0 2 -1 3t-1 3q-2 23 -19.5 40t-41.5 17q-27 0 -45.5 -18t-18.5 -45v-467q0 -84 -33.5 -157.5t-92 -129t-136.5 -87t-166 -31.5 q-90 0 -168 31.5t-135 87t-91 129t-34 157.5v467q0 27 -18.5 45t-44.5 18q-27 0 -45.5 -18t-18.5 -45v-467zM309.5 780q-0.5 27 18.5 45l368 369q18 18 45 18t45 -18t18.5 -45t-18.5 -45l-370 -369q-18 -18 -44 -18t-44 18t-18.5 45z" />
<glyph unicode="&#xfc;" horiz-adv-x="1404" d="M-4 2q0 -221 166 -381q78 -76 180 -116t215 -40t214 40t181 116q10 10 19.5 20.5t17.5 20.5v-133q0 -27 18.5 -45.5t47.5 -18.5q27 0 45 18.5t18 45.5v473v473v6q-4 25 -21.5 41.5t-41.5 16.5q-29 0 -47.5 -18.5t-18.5 -45.5v-473q0 -84 -33.5 -158.5t-93 -130 t-138.5 -88.5t-167 -33q-90 0 -169 33t-138.5 88.5t-93 130t-33.5 158.5v473q0 27 -18.5 45.5t-45.5 18.5t-45 -18.5t-18 -45.5v-473zM201 823q0 31 22 53.5t53 22.5q33 0 54.5 -22.5t21.5 -53.5q0 -33 -21.5 -54t-54.5 -21q-31 0 -53 21.5t-22 53.5zM760 823 q0 31 22.5 53.5t53.5 22.5q33 0 54 -22.5t21 -53.5q0 -33 -21.5 -54t-53.5 -21q-31 0 -53.5 21.5t-22.5 53.5z" />
<glyph unicode="&#x178;" horiz-adv-x="1357" d="M3 1472.5q-7 -24.5 5 -47.5l500 -940v-952q0 -27 19.5 -45t45.5 -18q29 0 47.5 18t18.5 45v952l494 940q12 23 4 48.5t-31 37.5q-23 14 -49.5 6t-38.5 -32l-445 -846l-450 846q-14 25 -40 32t-48 -6q-25 -14 -32 -38.5zM209 1747q0 33 22.5 55.5t55.5 22.5t54 -22.5 t21 -55.5t-21.5 -55.5t-53.5 -22.5q-33 0 -55.5 22.5t-22.5 55.5zM778 1747q0 33 21.5 55.5t54.5 22.5t55.5 -22.5t22.5 -55.5t-22.5 -55.5t-55.5 -22.5t-54.5 22.5t-21.5 55.5z" />
<glyph unicode="&#x2000;" horiz-adv-x="1086" />
<glyph unicode="&#x2001;" horiz-adv-x="2172" />
<glyph unicode="&#x2002;" horiz-adv-x="1086" />
<glyph unicode="&#x2003;" horiz-adv-x="2172" />
<glyph unicode="&#x2004;" horiz-adv-x="724" />
<glyph unicode="&#x2005;" horiz-adv-x="543" />
<glyph unicode="&#x2006;" horiz-adv-x="362" />
<glyph unicode="&#x2007;" horiz-adv-x="362" />
<glyph unicode="&#x2008;" horiz-adv-x="271" />
<glyph unicode="&#x2009;" horiz-adv-x="434" />
<glyph unicode="&#x200a;" horiz-adv-x="120" />
<glyph unicode="&#x2010;" horiz-adv-x="1001" d="M141 -31q0 27 17.5 44.5t44.5 17.5h456q27 0 44.5 -17.5t17.5 -44.5t-17.5 -44t-44.5 -17h-456q-27 0 -44.5 17.5t-17.5 43.5z" />
<glyph unicode="&#x2011;" horiz-adv-x="1001" d="M141 -31q0 27 17.5 44.5t44.5 17.5h456q27 0 44.5 -17.5t17.5 -44.5t-17.5 -44t-44.5 -17h-456q-27 0 -44.5 17.5t-17.5 43.5z" />
<glyph unicode="&#x2012;" horiz-adv-x="1001" d="M141 -31q0 27 17.5 44.5t44.5 17.5h456q27 0 44.5 -17.5t17.5 -44.5t-17.5 -44t-44.5 -17h-456q-27 0 -44.5 17.5t-17.5 43.5z" />
<glyph unicode="&#x2013;" horiz-adv-x="1445" d="M141 -31q0 27 31 44.5t78 17.5h806q47 0 78 -17.5t31 -44.5t-31 -44t-78 -17h-806q-47 0 -78 17.5t-31 43.5z" />
<glyph unicode="&#x2014;" horiz-adv-x="2469" d="M141 -31q0 27 62 44.5t157 17.5h1610q95 0 157 -17.5t62 -44.5t-62 -44t-157 -17h-1610q-95 0 -157 17.5t-62 43.5z" />
<glyph unicode="&#x202f;" horiz-adv-x="434" />
<glyph unicode="&#x205f;" horiz-adv-x="543" />
<glyph unicode="&#x20ac;" horiz-adv-x="1140" d="M-90 127q0 27 18.5 46.5t46.5 19.5h140q45 106 129 186q80 78 183 119t220 41q51 0 100.5 -8.5t98.5 -26.5q25 -10 37 -34t2 -48q-10 -27 -34 -39t-50 -2q-76 27 -154 27q-129 0 -230.5 -58.5t-158.5 -156.5h475q29 0 47.5 -19.5t18.5 -46.5q0 -29 -18.5 -47.5 t-47.5 -18.5h-522q-6 -35 -6 -69q0 -37 6 -70h522q29 0 47.5 -19.5t18.5 -45.5q0 -29 -18.5 -47.5t-47.5 -18.5h-475q57 -98 158.5 -156.5t230.5 -58.5q41 0 81 5t77 22q25 10 49.5 -1t34.5 -38q8 -25 -3.5 -49.5t-35.5 -34.5q-104 -35 -203 -35q-117 0 -220 41t-183 119 q-84 80 -129 186h-140q-29 0 -47 18.5t-18 47.5q0 27 18.5 46t46.5 19h105q-6 33 -6 70q0 35 6 69h-105q-29 0 -47 18.5t-18 47.5z" />
<glyph unicode="&#x25fc;" horiz-adv-x="532" d="M0 0v532h532v-532h-532z" />
<glyph unicode="&#xfb01;" horiz-adv-x="1052" d="M0 -467v1669q0 63 24.5 120.5t67.5 100.5t99.5 68t121.5 25h256q29 0 47.5 -18.5t18.5 -47.5q0 -27 -18.5 -45.5t-47.5 -18.5h-256q-78 0 -131 -53t-53 -131v-645h188q27 0 45.5 -19.5t18.5 -45.5q0 -27 -18.5 -46.5t-45.5 -19.5h-188v-893q0 -29 -18.5 -47t-44.5 -18 q-29 0 -47.5 18t-18.5 47zM635 -467q0 -29 18 -47t47 -18q27 0 45.5 18t18.5 47v963q0 27 -18.5 45t-45.5 18q-29 0 -47 -18.5t-18 -44.5v-963zM647 815q0 -23 15.5 -37t37.5 -14q52 0 52 51t-52 51q-23 0 -38 -14t-15 -37z" />
<glyph unicode="&#xfb02;" horiz-adv-x="937" d="M0 -457v1669q0 63 24.5 121t67.5 101t99.5 67.5t121.5 24.5h256q29 0 47.5 -18.5t18.5 -47.5v-1913q0 -29 -18.5 -47t-47.5 -18q-27 0 -46 18.5t-19 46.5v1850h-191q-78 0 -131 -53.5t-53 -131.5v-645h188q27 0 45.5 -19.5t18.5 -45.5q0 -27 -18.5 -46.5t-45.5 -19.5 h-188v-893q0 -29 -18.5 -47t-44.5 -18q-29 0 -47.5 18.5t-18.5 46.5z" />
</font>
</defs>
</svg>
